<svg id="Layer_2" xmlns="http://www.w3.org/2000/svg" viewBox="0 0 1000 1333.01"><defs><style>.cls-1{fill:#faac30;}.cls-2{fill:#e6dcda;}.cls-3{fill:#aea6a3;}.cls-4{fill:#3b3736;}</style></defs><g id="Design"><g><path class="cls-4" d="M367.71,42.84c-2.28-2.35-5.64-3.63-9.75-2.59-49.63,12.54-92.66,40.92-131.56,73.33-42.96,35.79-82.78,75.52-123.54,113.75-20.22,18.97-41.25,37.38-60.27,57.57-16.9,17.95-32.18,38.53-38.79,62.63-14.23,51.84,13.81,102.69,45.4,141.83,16.86,20.88,35.65,40.21,51.71,61.74,16.48,22.08,27.72,46.32,38.3,71.62,5.33,12.73,10.52,25.71,17.19,37.82,5.62,10.22,13.89,19.12,26.05,20.46,23.28,2.56,38.03-22.59,43.14-41.79,14.06-52.83,1.81-107.43-7.01-160.01-4.46-26.61-8.14-53.51-7.08-80.56,.31-8.02,.42-21.65,7.63-27.15,4.08-3.11,10.35-.71,15.03-.85,5.71-.17,11.38-1.99,15.65-5.87,7.81-7.1,9.37-18.05,9.84-28.04,.6-12.78,1.26-25.49,2.75-38.21,2.93-25.09,8.36-49.95,15.71-74.11,14.87-48.91,38.39-95.11,69.22-135.89,7.5-9.93,15.55-19.43,23.92-28.64,5.58-6.14,2.08-14.15-3.54-17.02Z"/><path class="cls-4" d="M985.5,330.47c-16.92-35.34-44.31-64.19-64.65-97.44-23.65-38.66-39.22-82.08-68.89-116.95-24.26-28.51-57.69-48.92-93.91-58.2-13.49-5.6-27.36-10.27-41.52-13.97-8.53-2.23-16.83,7.48-11.82,15.37,23.53,36.99,41.09,77.31,51.78,119.84,5.07,20.15,8.05,40.54,10.82,61.1,2.36,17.5,4.99,35.19,11.5,51.7,6.88,17.45,17.51,31.98,32.88,42.85,15.07,10.66,32.81,16.59,48.57,26.06,14.84,8.92,25.07,21.44,29.79,38.18,4.52,16.02,4.63,32.89,4.82,49.41,.21,17.43,.31,34.89,3.25,52.13,2.33,13.64,7.78,39.86,23.57,43.94,8.99,2.32,17.04-3.36,22.33-10.04,6.83-8.61,12.22-18.81,17.79-28.26,10.85-18.4,20.77-37.44,28.09-57.55,14.37-39.5,13.82-80.11-4.41-118.19Z"/><path class="cls-3" d="M897.14,1295.4c-17.24,5.55-34.77,10.11-52.54,13.71-73.95,15.07-150.15,15.66-225.28,18.48-79.24,2.98-158.5,5.5-237.8,5.42-78.65-.1-157.34-2.77-235.66-10.19-29.57-2.8-62.98-4.8-86.37-25.45-10.75-9.48-16.11-21.89-9.98-35.6,6.78-15.16,16.56-29.49,25.06-43.73,36.28-60.84,75.06-120.43,105.85-184.35,32.26-66.98,51.93-137.85,59.12-211.84,7.19-73.96,3.86-148.49-1.93-222.42-5.97-76.07-15.52-152.11-14.82-228.53,1.05-114.38,30.74-239.41,119.35-316.53-.31-1.37-.03-2.9,1.19-4.23,7.58-8.26,16.19-15.45,25.67-21.47C412.32,1.12,468.08-2.15,517.9,.96c28.94,1.8,57.67,6.23,86.11,11.7,14.33,2.77,28.6,5.79,42.86,8.92,13.57,2.98,27.56,5.38,40.71,10,22.76,8.02,36.49,24.74,45.47,46.61,10.69,26.03,18.01,53.83,25.66,80.88,15.9,56.29,28.91,113.48,38.52,171.18,4.67,28.1,8.1,56.76,3.49,85.12-4.25,26.16-15.63,50.41-27.04,74.11-12.01,24.92-23.18,49.87-30.79,76.54-7.53,26.38-12.27,53.5-14.68,80.82-4.86,55.47-.71,111.45,7.71,166.39,8.39,54.86,18.99,110.68,38.55,162.76,6.26,16.64,13.83,32.68,21.96,48.43,18.3,35.46,39.55,69.5,55.58,106.11,4.33,9.92,8.42,19.91,12.23,30.02,15.39,40.59,26.57,82.67,33.43,125.6,3.51,1.46,4.2,7.74-.53,9.26Z"/><path class="cls-4" d="M693.15,349.63c-4.74-22.36-20.74-38.99-43.72-41.98-13.5-1.76-27.47-.25-40.97,.9-13.54,1.15-27.1,2.83-40.39,5.73-23.12,5.04-52.15,14.15-66.45,34.52-14.82,21.11-7.34,52.5,5.78,72.54,11.17,17.08,27.96,29.8,47.51,34.49,9.37,4.06,19.44,6.16,29.61,7.38,13.09,1.57,26.9,2.97,40.08,1.83,11.16-.97,22.08-4.16,30.5-11.86,9.53-8.72,15.59-21.55,21.72-32.7,11.88-21.61,21.63-45.84,16.33-70.85Z"/><path class="cls-4" d="M605.27,466.99c6.8,25.55-7.59,51.07-28.31,65.53-21.77,15.18-49.39,20.58-75.32,23.26-29.23,3.03-58.95,1.89-87.83-3.61-23.83-4.54-56.26-10.18-68.02-34.38-11.63-23.93-4.37-52.8-13.44-77.69-2.11-5.79-11.45-3.29-9.31,2.57,9.15,25.1,2.52,53.31,13.45,77.91,11.83,26.63,42.96,34.27,68.91,39.74,31.56,6.65,64.16,8.43,96.25,5.12,28.05-2.89,57.85-8.64,81.27-25.32,23.79-16.95,39.51-46.32,31.68-75.7-1.6-6-10.92-3.45-9.31,2.57h0Z"/><path class="cls-4" d="M609.44,460.98c-7.74,18.04-16.15,40.89-2.38,58.4,12.98,16.5,39.98,17.78,59.03,15.55,20.69-2.43,43.8-8.91,60.53-21.83,18.31-14.14,22.7-37.79,28.96-58.82,8.71-29.27,16.87-58.69,24.53-88.25,1.56-6.02-7.75-8.59-9.31-2.57-6.87,26.5-14.13,52.9-21.84,79.16-7.14,24.32-11.21,53.55-34.94,67.33-20.88,12.13-48.9,18.74-72.88,15.25-12.63-1.84-26.32-6.23-30.46-19.65-4.15-13.47,1.86-27.46,7.11-39.7,2.42-5.65-5.89-10.58-8.34-4.87h0Z"/><path class="cls-4" d="M761.54,344.97c.16,18.04,13.77,34.3,31.83,36.77,6.08,.83,8.71-8.47,2.57-9.31-13.84-1.89-24.61-13.31-24.74-27.46-.06-6.21-9.71-6.23-9.66,0h0Z"/><path class="cls-4" d="M311.96,449.74c17.61-3.5,31.73-17.44,35.54-34.97,1.32-6.06-7.99-8.65-9.31-2.57-3.15,14.5-14.26,25.34-28.8,28.22-6.09,1.21-3.51,10.52,2.57,9.31h0Z"/><path class="cls-4" d="M506.69,566.55c5.69,40.95,11.79,81.87,18.92,122.59,2.65,15.14,6.14,30.81,15.87,43.14,9.71,12.31,24.53,18.3,39.48,21.46,25.71,5.44,58.72,5.6,77.35-16.12,21.73-25.33,10.09-59.97,11.21-89.8,1.61-42.89,21.01-82.91,32.04-123.79,1.62-6.01-7.69-8.57-9.31-2.57-8.78,32.56-22.15,63.87-28.73,97.03-3.1,15.61-4.53,31.43-3.16,47.32,1.27,14.75,3.26,30.01,.32,44.68-6.44,32.11-38.43,39.35-66.82,35.72-14.45-1.85-30.74-5.55-41.45-16.11-11.22-11.05-14.62-27.35-17.27-42.28-7.3-41.12-13.39-82.48-19.14-123.84-.85-6.13-10.16-3.52-9.31,2.57h0Z"/><path class="cls-4" d="M596.81,503.43c2.26,49.95,4.53,99.9,6.79,149.86,.28,6.19,9.94,6.22,9.66,0-2.26-49.95-4.53-99.9-6.79-149.86-.28-6.19-9.94-6.22-9.66,0h0Z"/><path class="cls-4" d="M417.45,273.29c-10.8-30.54-42.01-51.12-74.46-47.92-6.13,.61-6.19,10.27,0,9.66,28.01-2.77,55.7,14.09,65.15,40.83,2.06,5.82,11.39,3.31,9.31-2.57h0Z"/><path class="cls-4" d="M661.65,225.29c9.94-17.05,27.62-27.8,47.38-28.56,6.19-.24,6.23-9.9,0-9.66-23.15,.89-44.03,13.31-55.71,33.34-3.14,5.38,5.21,10.25,8.34,4.87h0Z"/><path class="cls-4" d="M415.23,270.4c-17.44-8.31-35.9-11.02-55-8.24-6.13,.89-3.52,10.2,2.57,9.31,16.31-2.37,32.7,.18,47.56,7.26,5.58,2.66,10.49-5.66,4.87-8.34h0Z"/><path class="cls-4" d="M661.32,230.61c17.44-5.11,35.25-5.49,52.86-1.01,6.03,1.53,8.6-7.78,2.57-9.31-19.24-4.89-38.94-4.58-58,1.01-5.95,1.75-3.42,11.07,2.57,9.31h0Z"/><g><path class="cls-4" d="M337.78,710.08c-2.58-13.16-8.68-27.2-22.37-31.96-13.1-4.56-25.49,3.42-30.59,15.38-1.63,2.43-2.2,5.41-2.4,8.43-1.31,7.49-.8,15.55,.66,23.51,1.25,12.27,3.8,24.45,6.5,36.44,4.07,18.09,8.4,36.12,13,54.08,2.99,11.7,8.4,22.69,22.56,20.73,12.34-1.71,20.91-12.79,23.89-24.26,4.08-15.69-.54-33.03-2.93-48.65-2.73-17.87-4.83-35.97-8.32-53.71Z"/><path class="cls-4" d="M864.43,1175.69c-.53,4.94-3.35,8.84-8.16,10.38-12.6,4.07-28.44-1.88-38.92-8.76-23.92-15.66-43.91-45.73-46.45-74.43-1.5-16.97,2.85-33.85,11.57-48.11,1.83-6.02,3.98-11.94,6.54-17.72,1.9-4.27,3.85-9.51,7.42-12.64,18.3,35.46,39.55,69.5,55.58,106.11,4.33,9.92,8.42,19.91,12.23,30.02,.47,5.13,.72,10.27,.19,15.15Z"/><path class="cls-4" d="M272,1130.62c-18.59,9.64-32.41,27.17-42.92,45.27-6.8,11.72-13.81,25.83-9.29,39.62,3.92,11.95,16.56,22.56,26.81,29.15,10.47,6.74,23.42,9.27,33.87,1.11,10.59-8.27,15.1-23.3,19.91-35.28,6.54-16.31,12.12-33.01,16.69-49.98,3.17-11.77,7.74-25.87-2.75-35.33-13.8-12.45-31.46-6.71-42.32,5.44Z"/><path class="cls-4" d="M552.56,977.88c10.92-8.53,12.85-22.46,14.05-35.38,1.75-18.81,4.49-37.41,8.85-55.8,3.18-13.44,12.09-30.44,6.63-44.15-4.08-10.25-14.85-16.9-25.61-17.69-13.53-1-25.78,7.44-33.28,18.12-6.23,8.88-9.1,19.24-10.54,29.86-4.32,10-8.64,19.99-12.96,29.99-5.73,13.26-12.88,28.07-8.27,42.76,3.96,12.63,16.32,23.04,26.86,30.29,10.33,7.11,23.61,10.32,34.27,2Z"/><path class="cls-4" d="M555.57,1167.4c-12.36-.92-25.05,1.23-34.44,9.83-5.62,5.14-9.29,11.91-9.96,19.16-2.81,0-5.91,2.39-5.28,6.04,3.76,22.05,11.81,45.9,30.8,59.45,16.88,12.04,41.86,12.33,55.72-4.44,6.66-8.06,9.87-18.4,11.78-28.52,1.96-10.38,3.84-21.61,2.16-32.14-3.86-24.18-30.34-27.87-50.77-29.38Z"/></g><path class="cls-1" d="M776.08,961.91c-5.46-15.64-10.92-31.29-16.38-46.93-1.5-4.3-8.19-4.82-9.46,0-20.8,79.04-104.67,114.27-178.13,132.42-21.32,5.27-43.17,9.28-65.25,7.67-22.21-1.61-43.61-8.71-64.43-16-36.55-12.78-72.84-26.59-107.48-43.81-39.05-19.41-75.7-43.37-106.2-74.33-1.76-1.79-3.92-1.75-5.61-.79-.45,.19-.9,.44-1.33,.79-7.7,6.4-11.21,15.23-15.44,23.97-3.95,8.17-5.43,17.64-2.02,26.27,4.13,10.46,14.92,14.78,24.42,19.56,12.89,6.49,25.79,12.99,38.68,19.48,50.43,25.4,100.45,51.9,151.5,76.11,22.88,10.85,46.44,19,71.9,21.29,25.59,2.31,51.51-.74,76.4-6.68,49.42-11.78,96.9-34.2,139.99-60.32,12.6-7.64,24.91-15.75,36.87-24.31,10.4-7.44,22.27-14.94,31.12-24.15,8.97-9.34,4.62-19.52,.87-30.26Z"/><path class="cls-2" d="M573.15,1056.07c-9.16-21-31.9-36.36-55.15-34.24-17.5,1.59-32.8,12.69-41.51,27.59-4.34,3.65-7.7,8.61-9.51,15.12-6.41,23.08,7.79,47.68,27.36,59.39,20.47,12.26,45.39,9.42,63.26-6.08,17.48-15.16,24.96-40.2,15.55-61.78Z"/></g></g></svg>