<svg width="400" height="460" viewBox="0 0 400 460" fill="none" xmlns="http://www.w3.org/2000/svg">
<path d="M320.018 325.562C319.886 324.962 319.46 324.682 318.998 324.641C314.765 305.436 308.765 286.649 301.072 268.544C298.909 263.458 296.617 258.427 294.192 253.461C291.632 248.217 288.62 243.123 286.494 237.682C284.476 232.524 283.836 227.287 284.176 221.778C284.507 216.396 285.509 211.08 285.851 205.7C286.175 200.591 285.815 195.42 283.87 190.635C282.036 186.128 279.109 182.233 276.207 178.371C270.291 170.499 265.902 162.184 263.059 152.733C257.523 134.316 256.926 114.866 252.069 96.2966C250.76 91.2971 249.128 86.3842 247.045 81.65C244.995 76.9922 242.567 72.1202 238.962 68.4547C237.373 66.8426 235.509 65.4983 233.38 64.7076C230.506 63.6414 227.52 63.9475 224.529 64.1388C218.717 64.5137 213.13 63.2766 208.096 60.4529C207.941 60.2718 207.729 60.1391 207.456 60.0856C207.204 59.9351 206.951 59.7846 206.701 59.6264C205.86 59.0933 205.062 59.6774 204.853 60.4248C200.337 61.8125 197.555 66.886 195.691 70.9468C192.008 78.9691 189.724 87.6086 187.115 96.016C184.216 105.36 181.214 114.846 176.471 123.447C174.207 127.554 171.509 131.316 168.074 134.525C162.844 139.41 156.693 143.162 151.175 147.698C145.407 152.442 140.208 157.834 135.256 163.416C132.772 166.214 130.349 169.063 127.932 171.92C125.795 174.445 123.477 176.978 122.07 180.008C119.208 186.166 121.537 192.393 124.334 198.099C127.71 204.983 130.288 211.809 131.958 219.309C133.657 226.933 134.911 234.664 136.316 242.347C137.757 250.222 139.897 258.308 140.233 266.322C140.567 274.247 137.449 281.405 133.654 288.185C129.765 295.131 125.645 301.964 121.524 308.775C113.7 321.707 104.148 333.979 98.913 348.279C93.8895 362.002 92.4284 376.741 91.6889 391.24C91.4976 394.964 91.3599 398.69 91.2222 402.417C91.2018 402.983 91.49 403.353 91.8801 403.532C91.9668 403.583 92.0637 403.629 92.1708 403.662C99.0227 405.83 105.961 407.736 113.04 409.008C119.963 410.253 126.904 410.735 133.925 410.949C149.1 411.411 164.277 411.796 179.46 411.939C209.912 412.227 240.415 411.551 270.732 408.529C287.562 406.85 304.321 404.442 320.908 401.126C321.449 401.019 321.867 400.417 321.857 399.882C321.309 375.147 325.465 349.991 320.016 325.557L320.018 325.562Z" fill="#FFF2E1"/>
<path d="M208.071 63.2029C208.87 62.7131 208.967 61.1929 207.783 60.7898C204.402 59.6394 201.528 57.3412 198.093 56.3311C194.516 55.2801 191.068 56.2163 187.638 57.3463C185.631 58.0095 183.635 58.6905 181.516 58.8895C179.514 59.0783 177.497 58.9507 175.49 58.9201C173.646 58.8921 171.793 58.9201 169.972 59.2568C168.536 59.5247 166.351 60.9046 164.755 60.8409C164.701 60.624 164.599 60.4251 164.421 60.2822C154.453 52.158 140.963 49.2169 128.445 52.0534C121.876 53.5431 116.08 56.7264 110.909 60.9914C107.933 63.4452 105.179 66.1491 102.364 68.7815C99.6582 71.3093 96.792 73.6535 94.0763 76.1686C91.5263 78.5306 89.1267 81.1503 87.4871 84.2418C85.6766 87.6573 84.7586 91.4325 83.838 95.1618C82.8996 98.9624 81.8261 102.679 80.0844 106.199C78.506 109.39 75.5709 112.469 75.0558 116.073C74.6708 118.759 76.3104 121.08 78.9548 121.634C81.9204 122.254 84.5138 120.552 86.4441 118.463C89.2976 115.377 91.8093 111.928 94.4766 108.684C96.4886 106.237 100.222 101.801 103.856 103.551C106.5 104.827 107.775 106.995 110.922 105.595C112.016 105.107 112.337 104.934 113.148 105.839C113.594 106.339 113.813 107.079 114.02 107.696C114.527 109.212 114.731 110.801 115.28 112.308C116.468 115.573 118.424 118.198 120.887 120.598C122.624 122.289 122.624 123.907 122.618 126.207C122.613 128.577 122.58 130.947 122.514 133.317C122.279 141.956 121.649 150.585 120.627 159.166C120.104 163.551 119.428 167.905 118.748 172.267C118.209 175.718 117.748 179.238 118.38 182.71C118.77 184.853 119.88 188.947 122.738 188.87C123.868 188.84 124.697 188.049 125.278 187.159C126.303 185.585 127.027 183.799 128.037 182.202C129.947 179.177 132.234 176.402 134.828 173.935C137.391 171.497 140.938 168.107 144.551 167.479C146.137 167.204 147.728 167.877 149.309 167.489C150.819 167.12 152.012 165.992 153.093 164.944C155.534 162.579 157.581 159.822 159.379 156.947C163.125 150.958 165.762 144.336 169.635 138.426C173.346 132.768 178.514 127.21 185.292 125.48C186.986 125.049 188.689 125.157 190.387 124.858C191.968 124.58 192.978 123.634 193.937 122.412C196.089 119.667 197.981 116.693 199.672 113.645C206.575 101.205 209.928 86.7773 209.173 72.5669C209.007 69.4243 208.625 66.2996 208.071 63.2029Z" fill="#935E4C"/>
<path d="M326.998 112.387C323.91 105.146 316.594 101.513 312.287 95.1797C310.272 92.2182 308.38 89.1675 305.177 87.3564C302.128 85.6321 298.57 85.1347 295.136 84.8209C288.424 84.2087 279.683 86.0045 274.162 81.26C271.436 78.9158 269.271 75.837 265.614 74.8881C263.49 74.3372 261.277 74.5795 259.114 74.3882C257.051 74.2045 255.047 73.628 253.127 72.8679C245.895 69.9957 239.678 64.685 231.6 64.3534C231.327 64.3432 231.105 64.4069 230.921 64.5166C230.139 64.7258 229.519 65.5089 230.108 66.343C232.724 70.0544 232.648 74.5591 231.847 78.8623C230.967 83.5914 229.519 88.2339 228.282 92.8763C226.974 97.7891 225.413 102.71 224.406 107.694C223.478 112.298 224.297 116.249 226.296 120.44C230.649 129.569 236.001 138.377 239.752 147.772C241.642 152.504 242.124 157.332 242.131 162.39C242.139 167.454 242.167 172.502 242.493 177.56C243.108 187.054 244.074 197.066 246.765 206.226C247.892 210.067 249.814 213.251 252.653 216.059C255.134 218.518 258.408 220.86 259.657 224.255C260.963 227.806 258.584 231.981 261.185 235.195C263.717 238.322 267.463 236.425 269.883 234.244C276.082 228.652 280.932 221.403 284.571 213.939C288.97 204.917 291.856 195.178 293.226 185.243C294.725 174.366 294.761 163.334 296.589 152.501C302.043 153.924 306.399 158.562 309.785 162.822C311.958 165.553 313.891 168.479 315.63 171.504C316.306 172.678 316.951 173.869 317.558 175.078C318.116 176.188 318.506 177.7 319.228 178.695C321.072 181.243 324.616 178.667 325.455 176.626C326.08 175.111 326.136 173.377 326.325 171.767C326.58 169.576 326.835 167.385 327.092 165.191C328.158 156.042 329.425 146.877 329.826 137.666C330.185 129.432 330.292 120.111 326.998 112.387Z" fill="#935E4C"/>
<path d="M227.441 151.761C227.403 151.08 227.329 150.402 227.224 149.733C227.653 144.535 223.782 141.324 219.523 138.979C214.872 136.418 209.65 135.196 204.417 134.561C198.595 133.852 192.486 133.577 186.651 134.225C176.599 135.342 166.672 141.015 165.843 152.055C165.04 162.714 172.611 171.341 181.459 176.121C186.162 178.662 191.751 181.037 197.208 180.251C199.08 179.981 200.699 179.297 202.168 178.366C210.252 175.899 217.302 170.517 221.969 163.441C225.755 160.658 227.709 156.57 227.444 151.761H227.441Z" fill="#3A2913"/>
<path d="M134.121 185.416C134.193 185.45 134.297 185.498 134.404 185.546C134.461 185.572 134.519 185.613 134.578 185.633C134.619 185.648 134.659 185.654 134.716 185.796C134.767 185.929 134.797 185.891 134.815 185.799C134.828 185.74 134.838 185.671 134.863 185.674C134.968 185.687 135.083 185.74 135.19 185.748C135.261 185.753 135.33 185.768 135.43 185.914C135.493 186.008 135.501 185.881 135.511 185.768C135.524 185.633 135.549 185.679 135.649 185.939C135.71 186.1 135.73 186.115 135.708 185.972C135.685 185.83 135.654 185.689 135.692 185.687C135.81 185.677 135.919 185.646 136.042 185.646C136.077 185.646 136.108 185.554 136.2 185.914C136.205 185.934 136.223 185.978 136.225 185.978C136.286 185.978 136.345 185.978 136.404 185.978C136.378 185.694 136.536 185.924 136.562 185.781C136.567 185.753 136.59 185.753 136.613 185.791C136.745 186.021 136.745 185.794 136.865 185.975C136.942 186.09 136.944 186.023 136.924 185.896C136.903 185.781 136.903 185.71 136.937 185.697C137.092 185.636 137.235 185.546 137.391 185.49C137.49 185.455 137.587 185.421 137.712 185.442C137.941 185.485 138.11 185.393 138.301 185.342C138.411 185.312 138.551 185.335 138.696 185.365C138.755 185.378 138.793 185.365 138.806 185.299C138.9 184.776 139.173 184.595 139.479 184.432C139.525 184.409 139.645 184.483 139.67 184.432C139.696 184.378 139.696 184.299 139.788 184.332C139.849 184.353 139.867 184.294 139.851 184.212C139.782 183.845 140.002 183.853 140.16 183.774C140.264 183.725 140.417 183.733 140.517 183.672C140.614 183.608 140.67 183.498 140.736 183.401C140.749 183.383 140.751 183.355 140.772 183.348C140.871 183.314 141.027 183.337 141.065 183.243C141.101 183.154 141.093 183.021 141.167 182.97C141.193 182.952 141.205 182.919 141.205 182.876C141.21 182.707 141.172 182.516 141.529 182.672L141.657 182.496C141.68 182.468 141.662 182.396 141.736 182.422C141.94 182.488 141.94 182.399 141.789 182.187C141.708 182.072 141.731 182.019 141.715 181.947C141.705 181.894 141.708 181.855 141.881 181.955C141.932 181.986 141.986 181.98 141.963 181.947C141.871 181.822 142.006 181.866 142.009 181.817C142.011 181.743 142.06 181.72 142.223 181.771C142.276 181.789 142.289 181.753 142.256 181.707C142.034 181.399 142.07 181.269 142.111 181.139C142.182 180.927 142.269 180.731 142.429 180.575C142.452 180.555 142.47 180.526 142.45 180.483C142.381 180.333 142.457 180.266 142.511 180.182C142.531 180.152 142.513 180.098 142.511 180.055C142.766 180.154 142.549 180.014 142.552 179.986C142.552 179.945 142.646 179.95 142.618 179.891C142.585 179.817 142.651 179.789 142.689 179.746C142.751 179.675 142.962 179.723 143.393 179.904L143.607 179.996C143.804 180.085 143.898 180.144 143.921 180.21C143.952 180.289 144.026 180.396 143.959 180.43C143.817 180.501 143.893 180.672 143.903 180.817C143.924 181.032 143.908 181.23 143.806 181.389C143.74 181.491 143.692 181.603 143.635 181.71C143.584 181.815 143.59 181.952 143.564 182.077C143.541 182.187 143.528 182.309 143.444 182.376C143.299 182.496 143.253 182.687 143.097 182.797C143.059 182.825 143.021 182.855 143.016 182.911C142.998 183.103 142.965 183.289 142.804 183.371C142.786 183.378 142.763 183.391 142.789 183.424C142.97 183.684 142.817 183.692 142.763 183.769C142.621 183.973 142.452 184.156 142.279 184.332C142.072 184.554 141.873 184.784 141.644 184.983C141.506 185.108 141.394 185.271 141.193 185.317C141.065 185.342 141.022 185.462 140.932 185.531C140.767 185.654 140.575 185.735 140.405 185.845C140.114 186.036 139.844 186.263 139.545 186.447C139.525 186.46 139.512 186.485 139.502 186.516C139.359 186.909 139.038 187.016 138.737 187.141C138.459 187.268 138.186 187.419 137.895 187.521C137.699 187.595 137.482 187.613 137.273 187.643C137.102 187.669 136.934 187.704 136.761 187.72C136.575 187.727 136.404 187.801 136.187 187.687C136.123 187.653 136.072 187.666 136.016 187.666C135.743 187.679 135.465 187.658 135.195 187.643C135.129 187.638 135.06 187.592 134.973 187.365C134.932 187.255 134.876 187.204 134.838 187.197C134.726 187.174 134.608 187.097 134.519 187.225C134.458 187.312 134.382 187.187 134.313 187.159C134.308 187.159 134.292 187.079 134.29 187.049C134.285 186.903 134.264 186.863 134.239 186.86C134.19 186.86 134.157 187.028 134.096 186.875C134.027 186.694 134.04 186.386 133.999 186.151C133.956 185.893 133.999 185.74 133.981 185.511C133.981 185.48 133.999 185.447 134.012 185.439C134.037 185.427 134.068 185.429 134.129 185.421L134.121 185.416Z" fill="#3A2913"/>
<path d="M140.733 189.202C140.968 190.115 141.338 191.485 141.741 192.839C141.95 193.548 142.161 194.252 142.401 194.951C142.582 195.461 142.761 195.954 142.799 196.413C142.827 196.839 143.033 197.242 143.306 197.619C143.48 197.864 143.676 198.142 143.809 198.415C144.377 199.668 144.979 200.897 145.716 202.05C146.198 202.82 146.703 203.527 147.093 204.282C147.361 204.759 147.746 205.024 148.151 205.297C148.659 205.616 148.743 205.8 148.87 206.289C148.949 206.588 149.082 206.733 149.306 206.738C149.533 206.738 149.668 206.698 150.082 207.019C151.244 207.978 152.53 208.792 153.879 209.455C154.264 209.628 154.99 209.858 154.633 210.108C154.613 210.121 154.646 210.187 154.674 210.2C155.008 210.34 155.35 210.46 155.689 210.59C156.028 210.72 156.383 210.802 156.729 210.909C157.155 210.896 157.604 210.94 158.053 211.049C158.504 211.133 158.968 211.202 159.404 211.179C159.57 211.156 159.871 211.167 159.973 211.21C160.123 211.276 160.299 211.314 160.486 211.335C160.672 211.345 160.868 211.327 161.064 211.314C161.261 211.299 161.457 211.284 161.648 211.284C161.837 211.271 162.016 211.258 162.181 211.284C162.6 211.34 162.916 211.235 163.176 211.011C163.413 210.812 163.696 210.695 164.112 210.531C166.098 209.82 167.842 208.547 169.383 207.067L170.102 206.361C170.339 206.121 170.561 205.863 170.793 205.616C171.262 205.129 171.7 204.608 172.159 204.119C173.809 202.308 175.235 200.272 176.846 198.374L177.56 197.563C177.805 197.298 178.065 197.048 178.318 196.793C178.815 196.275 179.379 195.824 179.914 195.359C180.35 195.002 180.75 194.704 181.138 194.298C181.533 193.91 181.977 193.574 182.408 193.212C182.62 193.025 182.869 192.893 183.102 192.732C183.341 192.581 183.571 192.413 183.821 192.283L184.581 191.895C184.708 191.834 184.833 191.765 184.966 191.707L185.363 191.551L186.164 191.245C186.437 191.161 186.715 191.089 186.99 191.01C189.206 190.401 191.562 190.36 193.827 190.75C193.998 190.778 194.169 190.814 194.339 190.855C194.508 190.903 194.673 190.962 194.837 191.015C195.166 191.13 195.495 191.219 195.818 191.309C196.479 191.495 197.104 191.62 197.736 191.997C198.175 192.219 198.756 192.5 199.233 192.666C199.511 192.752 199.763 192.888 200.021 193.018C200.278 193.15 200.538 193.283 200.786 193.436C201.025 193.602 201.265 193.77 201.502 193.944L201.857 194.206L202.183 194.505C203.076 195.283 203.81 196.211 204.473 197.155C205.335 198.395 206.003 199.736 206.679 201.053C207.372 202.377 208.069 203.705 208.762 205.032C208.892 205.272 209.032 205.509 209.147 205.751C209.67 206.856 210.177 207.988 210.881 208.958C211.552 209.878 212.317 210.702 213.095 211.539C213.367 211.827 213.668 212.1 213.977 212.337C214.594 212.827 215.265 213.225 215.915 213.61C216.568 214.003 217.221 214.34 217.871 214.743C218.738 215.011 219.643 215.143 220.553 215.159C220.783 215.153 221.03 215.143 221.267 215.128C221.504 215.105 221.729 215.095 221.915 215.118C222.945 215.215 223.777 214.977 224.593 214.495C225.036 214.235 225.72 214 226.293 213.73C226.714 213.534 227.117 213.35 227.507 213.406C227.625 213.424 228.071 213.276 228.193 213.184C228.673 212.817 229.262 212.697 229.746 212.442C230.455 212.062 231.052 211.809 231.735 211.664C231.957 211.615 232.378 211.401 232.572 211.246C233.857 210.223 235.394 209.371 236.919 208.46C239.418 206.965 241.843 205.376 244.154 203.639C244.48 203.41 244.799 203.132 245.066 202.859C245.296 202.624 245.531 202.397 245.77 202.175L246.474 201.491L247.198 200.823L247.894 200.127C248.076 199.946 248.249 199.757 248.422 199.566C248.591 199.372 248.744 199.165 248.909 198.969C249.351 198.877 249.399 198.441 249.631 198.16C249.94 197.757 250.291 197.431 250.603 196.956C250.983 196.38 251.421 195.762 251.857 195.178C252.507 194.15 252.974 193.775 253.448 193.895C253.527 193.916 253.604 193.936 253.67 193.977C253.854 194.092 253.844 194.326 253.573 194.875C253.41 195.211 253.244 195.561 253.079 195.905C252.887 196.234 252.688 196.556 252.469 196.836C251.513 198.071 250.659 199.295 249.713 200.458C248.282 202.149 246.706 203.69 244.929 205.068C244.353 205.509 243.779 205.958 243.18 206.371L242.29 207.009L241.379 207.613L239.653 208.769C239.082 209.162 238.495 209.529 237.909 209.894C237.386 210.225 236.845 210.539 236.307 210.85C235.769 211.164 235.226 211.452 234.685 211.71C232.747 212.636 230.873 213.618 228.884 214.434C228.369 214.641 227.839 214.847 227.336 215.074C225.567 215.868 223.634 216.521 221.548 216.579C221.331 216.592 221.035 216.584 220.898 216.623C219.857 216.947 218.539 216.684 217.402 216.327C215.866 215.883 214.489 215.051 213.286 214.092C212.098 213.11 211.072 211.98 210.183 210.784C209.099 209.333 208.186 207.761 207.385 206.21C206.574 204.659 205.835 203.114 205.037 201.639C204.052 199.816 202.928 198.122 201.666 196.655C200.857 195.77 199.957 195.058 198.945 194.472C198.832 194.4 198.723 194.324 198.608 194.257L198.254 194.071L197.545 193.691L196.805 193.37L196.435 193.206L196.053 193.074L195.288 192.811L194.503 192.61C193.982 192.456 193.442 192.405 192.909 192.309C189.227 191.854 185.399 192.752 182.487 194.987C182.278 195.13 182.079 195.293 181.906 195.479C180.666 196.624 179.544 197.938 178.427 199.303C177.31 200.67 176.224 202.106 175.095 203.568C174.029 204.94 172.935 206.33 171.706 207.659C170.459 208.973 169.051 210.213 167.427 211.195C165.218 212.501 162.577 213.281 159.991 213.169C157.874 213.123 155.799 212.661 153.914 211.842C151.892 210.97 149.972 209.825 148.432 208.317C147.993 207.861 147.491 207.432 147.052 206.953C144.806 204.583 143.153 201.813 141.853 198.935C141.544 198.234 141.304 197.558 141.304 196.931C141.297 196.627 141.144 196.076 140.988 195.65C140.552 194.418 140.195 193.15 139.685 191.954C139.346 191.161 139.239 190.385 139.038 189.6C139.022 189.546 139.071 189.431 139.106 189.447C139.282 189.528 139.267 189.334 139.18 189.023C139.015 188.442 138.673 187.88 138.665 187.291C138.655 186.592 139.091 187 139.252 186.699C139.428 186.37 139.785 187.067 140.029 187.077C140.063 187.077 140.185 187.388 140.244 187.567C140.371 187.952 140.478 188.347 140.741 189.199L140.733 189.202Z" fill="#3A2913"/>
<path d="M255.213 189.926C255.162 189.969 255.083 190.038 255.004 190.105C254.96 190.14 254.907 190.176 254.868 190.214C254.84 190.242 254.825 190.273 254.672 190.273C254.532 190.273 254.557 190.309 254.639 190.352C254.69 190.38 254.754 190.411 254.743 190.429C254.7 190.508 254.613 190.584 254.573 190.668C254.547 190.724 254.511 190.775 254.34 190.816C254.231 190.842 254.351 190.883 254.453 190.923C254.578 190.972 254.527 190.979 254.246 190.99C254.075 190.997 254.055 191.01 254.198 191.028C254.34 191.048 254.483 191.061 254.476 191.094C254.45 191.194 254.448 191.293 254.409 191.393C254.397 191.421 254.478 191.472 254.106 191.456C254.085 191.456 254.04 191.459 254.037 191.462C254.017 191.513 254.001 191.561 253.986 191.612C254.264 191.663 253.996 191.737 254.129 191.793C254.154 191.803 254.147 191.824 254.106 191.834C253.848 191.89 254.065 191.944 253.856 192.002C253.726 192.041 253.785 192.058 253.915 192.071C254.029 192.081 254.098 192.097 254.101 192.13C254.116 192.275 254.159 192.418 254.17 192.564C254.175 192.655 254.18 192.747 254.124 192.849C254.017 193.038 254.06 193.204 254.055 193.38C254.055 193.482 253.994 193.599 253.925 193.722C253.899 193.77 253.899 193.808 253.961 193.831C254.432 194.015 254.534 194.283 254.606 194.584C254.616 194.63 254.514 194.722 254.557 194.752C254.601 194.785 254.677 194.795 254.624 194.872C254.588 194.923 254.641 194.949 254.72 194.949C255.088 194.943 255.019 195.137 255.054 195.29C255.075 195.39 255.029 195.528 255.062 195.624C255.098 195.721 255.187 195.788 255.264 195.859C255.276 195.872 255.304 195.877 255.304 195.9C255.312 195.994 255.253 196.135 255.332 196.181C255.409 196.224 255.531 196.232 255.564 196.306C255.577 196.331 255.603 196.346 255.644 196.351C255.799 196.374 255.985 196.359 255.761 196.67L255.896 196.808C255.919 196.831 255.985 196.823 255.947 196.89C255.842 197.073 255.927 197.081 256.154 196.961C256.278 196.895 256.322 196.923 256.391 196.915C256.442 196.91 256.477 196.915 256.35 197.068C256.312 197.114 256.304 197.165 256.34 197.145C256.475 197.071 256.406 197.191 256.449 197.198C256.516 197.209 256.528 197.254 256.449 197.402C256.424 197.451 256.452 197.466 256.503 197.438C256.829 197.252 256.941 197.293 257.051 197.341C257.23 197.423 257.388 197.515 257.5 197.675C257.515 197.698 257.536 197.716 257.579 197.698C257.724 197.64 257.77 197.716 257.837 197.77C257.862 197.79 257.911 197.775 257.949 197.777C257.821 198.017 257.979 197.816 258.005 197.818C258.041 197.821 258.02 197.91 258.079 197.884C258.148 197.854 258.165 197.92 258.196 197.958C258.25 198.02 258.176 198.224 257.956 198.637L257.844 198.841C257.737 199.03 257.671 199.119 257.61 199.137C257.533 199.162 257.426 199.229 257.403 199.162C257.355 199.02 257.186 199.083 257.051 199.083C256.85 199.088 256.664 199.058 256.531 198.948C256.447 198.877 256.347 198.818 256.256 198.757C256.164 198.701 256.036 198.691 255.924 198.652C255.827 198.619 255.712 198.594 255.664 198.507C255.575 198.356 255.404 198.29 255.33 198.129C255.309 198.089 255.289 198.05 255.238 198.04C255.06 198.002 254.889 197.948 254.845 197.782C254.84 197.765 254.835 197.742 254.797 197.759C254.514 197.897 254.537 197.752 254.476 197.691C254.31 197.527 254.17 197.344 254.04 197.152C253.874 196.925 253.695 196.703 253.56 196.459C253.473 196.308 253.341 196.178 253.346 195.984C253.354 195.862 253.247 195.8 253.203 195.706C253.127 195.533 253.094 195.339 253.032 195.16C252.923 194.857 252.77 194.566 252.673 194.255C252.665 194.234 252.645 194.216 252.619 194.201C252.453 194.094 252.362 193.961 252.306 193.819C252.257 193.673 252.244 193.52 252.224 193.37C252.176 193.086 252.109 192.806 252.091 192.518C252.074 192.321 252.119 192.122 252.153 191.926C252.178 191.765 252.191 191.604 252.229 191.446C252.275 191.278 252.26 191.104 252.433 190.946C252.484 190.9 252.489 190.849 252.504 190.801C252.573 190.556 252.686 190.319 252.782 190.087C252.808 190.031 252.874 189.985 253.114 189.982C253.231 189.982 253.295 189.949 253.318 189.921C253.377 189.834 253.486 189.758 253.394 189.64C253.333 189.561 253.474 189.533 253.522 189.485C253.525 189.482 253.604 189.492 253.632 189.503C253.769 189.546 253.815 189.543 253.825 189.523C253.843 189.485 253.695 189.395 253.856 189.398C254.047 189.403 254.333 189.518 254.565 189.566C254.82 189.62 254.95 189.707 255.172 189.77C255.202 189.778 255.228 189.806 255.23 189.819C255.236 189.844 255.223 189.865 255.213 189.916V189.926Z" fill="#3A2913"/>
<path d="M191.904 177.567C191.845 177.631 191.759 177.731 191.669 177.828C191.623 177.879 191.562 177.927 191.521 177.981C191.491 178.019 191.47 178.06 191.315 178.062C191.172 178.062 191.195 178.108 191.269 178.164C191.317 178.2 191.376 178.243 191.363 178.266C191.305 178.371 191.208 178.468 191.154 178.575C191.118 178.646 191.078 178.713 190.899 178.748C190.784 178.771 190.894 178.833 190.991 178.896C191.106 178.97 191.052 178.978 190.772 178.958C190.601 178.945 190.578 178.958 190.716 179.001C190.853 179.044 190.994 179.08 190.978 179.121C190.932 179.243 190.907 179.371 190.851 179.493C190.835 179.526 190.899 179.606 190.54 179.519C190.519 179.514 190.473 179.511 190.471 179.511C190.438 179.567 190.412 179.626 190.384 179.685C190.644 179.804 190.364 179.84 190.476 179.937C190.496 179.955 190.486 179.98 190.443 179.98C190.178 179.988 190.374 180.105 190.157 180.123C190.019 180.136 190.076 180.172 190.195 180.22C190.305 180.264 190.366 180.299 190.359 180.338C190.328 180.516 190.325 180.702 190.29 180.881C190.267 180.993 190.244 181.105 190.152 181.207C189.984 181.391 189.966 181.598 189.9 181.797C189.861 181.911 189.757 182.021 189.645 182.128C189.601 182.172 189.586 182.212 189.632 182.263C189.999 182.674 189.958 183.039 189.892 183.409C189.882 183.465 189.747 183.511 189.77 183.567C189.792 183.626 189.851 183.679 189.77 183.733C189.713 183.768 189.747 183.825 189.815 183.87C190.134 184.077 189.989 184.256 189.933 184.439C189.894 184.559 189.782 184.677 189.757 184.796C189.734 184.919 189.777 185.046 189.798 185.171C189.8 185.194 189.818 185.217 189.808 185.24C189.759 185.342 189.632 185.442 189.668 185.544C189.703 185.641 189.8 185.738 189.785 185.835C189.78 185.868 189.795 185.903 189.823 185.937C189.93 186.074 190.086 186.207 189.716 186.335L189.736 186.572C189.739 186.613 189.798 186.656 189.726 186.689C189.53 186.778 189.583 186.85 189.836 186.924C189.971 186.965 189.986 187.026 190.045 187.077C190.086 187.115 190.109 187.151 189.912 187.184C189.854 187.194 189.815 187.235 189.854 187.245C190.004 187.291 189.872 187.342 189.9 187.388C189.943 187.454 189.923 187.508 189.759 187.569C189.706 187.59 189.716 187.628 189.772 187.648C190.134 187.771 190.183 187.913 190.229 188.059C190.302 188.299 190.336 188.538 190.29 188.783C190.285 188.816 190.282 188.852 190.323 188.883C190.463 188.982 190.44 189.094 190.438 189.207C190.438 189.25 190.478 189.291 190.501 189.332C190.234 189.385 190.489 189.393 190.501 189.424C190.522 189.464 190.44 189.513 190.496 189.556C190.565 189.61 190.522 189.676 190.512 189.74C190.496 189.844 190.29 189.913 189.826 189.967L189.594 189.992C189.379 190.013 189.267 190.005 189.214 189.959C189.147 189.903 189.027 189.847 189.068 189.783C189.152 189.643 188.999 189.531 188.918 189.411C188.793 189.235 188.693 189.056 188.688 188.865C188.688 188.742 188.665 188.62 188.653 188.498C188.637 188.38 188.548 188.268 188.497 188.153C188.451 188.051 188.39 187.944 188.418 187.842C188.466 187.658 188.387 187.477 188.436 187.294C188.449 187.245 188.459 187.199 188.426 187.153C188.316 186.993 188.232 186.829 188.298 186.661C188.306 186.643 188.316 186.62 188.275 186.61C187.967 186.528 188.076 186.429 188.066 186.335C188.038 186.09 188.046 185.842 188.043 185.597C188.038 185.299 188.023 184.998 188.033 184.697C188.038 184.511 187.997 184.322 188.102 184.146C188.168 184.036 188.104 183.924 188.112 183.812C188.127 183.61 188.199 183.411 188.219 183.21C188.252 182.865 188.25 182.516 188.273 182.169C188.273 182.146 188.26 182.121 188.245 182.095C188.018 181.753 188.112 181.44 188.173 181.126C188.227 180.83 188.24 180.526 188.301 180.23C188.342 180.029 188.433 179.838 188.507 179.644C188.566 179.483 188.617 179.322 188.686 179.167C188.765 178.998 188.772 178.817 188.971 178.677C189.03 178.636 189.043 178.583 189.066 178.534C189.18 178.284 189.3 178.037 189.425 177.792C189.456 177.733 189.527 177.687 189.77 177.692C189.887 177.695 189.956 177.662 189.979 177.629C190.042 177.529 190.157 177.445 190.068 177.31C190.009 177.221 190.155 177.187 190.206 177.131C190.208 177.126 190.287 177.139 190.315 177.149C190.453 177.195 190.499 177.19 190.509 177.164C190.529 177.116 190.384 177.024 190.547 177.016C190.744 177.009 191.027 177.126 191.264 177.167C191.521 177.21 191.649 177.31 191.871 177.371C191.901 177.379 191.924 177.414 191.924 177.43C191.924 177.465 191.912 177.493 191.894 177.565L191.904 177.567Z" fill="#3A2913"/>
<path d="M265.334 182.549C273.57 183.967 276.921 192.194 276.908 199.729C276.908 201.392 279.489 201.394 279.491 199.729C279.504 191.13 275.355 181.664 266.02 180.057C264.393 179.776 263.697 182.266 265.334 182.549Z" fill="#935E4C"/>
<path d="M140.978 162.531C132.938 166.222 126.948 173.489 124.791 182.062C124.385 183.674 126.874 184.363 127.282 182.748C129.291 174.762 134.807 168.191 142.284 164.763C143.793 164.071 142.482 161.842 140.981 162.531H140.978Z" fill="#935E4C"/>
<path d="M184.662 216.952C184.729 217.021 184.828 217.123 184.927 217.225C184.981 217.278 185.029 217.347 185.083 217.395C185.124 217.434 185.167 217.457 185.157 217.612C185.149 217.755 185.2 217.74 185.269 217.671C185.312 217.628 185.363 217.574 185.389 217.589C185.504 217.661 185.606 217.768 185.723 217.834C185.802 217.878 185.873 217.929 185.904 218.11C185.927 218.227 186.001 218.122 186.072 218.031C186.162 217.921 186.164 217.977 186.134 218.255C186.116 218.426 186.128 218.451 186.179 218.316C186.233 218.181 186.274 218.043 186.322 218.064C186.46 218.12 186.603 218.153 186.738 218.219C186.776 218.24 186.865 218.179 186.763 218.536C186.758 218.556 186.753 218.602 186.756 218.605L186.952 218.701C187.087 218.446 187.128 218.73 187.238 218.62C187.258 218.599 187.286 218.612 187.289 218.656C187.299 218.923 187.432 218.73 187.457 218.949C187.472 219.087 187.516 219.033 187.567 218.913C187.613 218.806 187.653 218.745 187.699 218.75C187.906 218.783 188.115 218.786 188.319 218.824C188.446 218.849 188.576 218.872 188.696 218.959C188.916 219.122 189.153 219.135 189.387 219.196C189.523 219.229 189.655 219.326 189.788 219.431C189.841 219.472 189.89 219.485 189.946 219.434C190.384 219.046 190.803 219.043 191.231 219.074C191.295 219.079 191.366 219.207 191.427 219.176C191.491 219.145 191.545 219.079 191.619 219.156C191.667 219.207 191.726 219.166 191.769 219.089C191.958 218.742 192.18 218.87 192.396 218.89C192.537 218.908 192.687 218.997 192.83 219C192.973 219 193.11 218.939 193.248 218.893C193.274 218.885 193.297 218.862 193.325 218.867C193.447 218.895 193.585 219 193.694 218.941C193.796 218.885 193.888 218.77 194 218.765C194.039 218.765 194.077 218.742 194.107 218.707C194.24 218.566 194.352 218.383 194.577 218.714L194.837 218.635C194.88 218.622 194.918 218.554 194.972 218.617C195.117 218.786 195.184 218.712 195.206 218.446C195.219 218.304 195.283 218.27 195.326 218.202C195.359 218.15 195.393 218.117 195.477 218.301C195.502 218.355 195.556 218.383 195.558 218.342C195.571 218.184 195.663 218.296 195.706 218.258C195.767 218.196 195.834 218.202 195.943 218.339C195.979 218.385 196.02 218.362 196.025 218.304C196.066 217.916 196.206 217.821 196.351 217.732C196.594 217.589 196.836 217.469 197.114 217.429C197.152 217.424 197.19 217.411 197.208 217.362C197.272 217.194 197.399 217.179 197.517 217.135C197.563 217.12 197.591 217.064 197.629 217.026C197.769 217.26 197.698 217.013 197.726 216.99C197.764 216.957 197.841 217.015 197.866 216.944C197.899 216.86 197.986 216.873 198.055 216.857C198.17 216.832 198.312 217 198.527 217.413L198.631 217.622C198.725 217.816 198.754 217.926 198.723 217.995C198.682 218.079 198.659 218.214 198.578 218.204C198.397 218.179 198.323 218.372 198.215 218.497C198.06 218.691 197.889 218.849 197.675 218.923C197.537 218.972 197.405 219.036 197.272 219.094C197.144 219.153 197.04 219.273 196.923 219.362C196.818 219.439 196.714 219.536 196.586 219.543C196.364 219.561 196.178 219.694 195.954 219.699C195.895 219.699 195.839 219.706 195.793 219.75C195.632 219.903 195.464 220.038 195.255 220.015C195.232 220.015 195.204 220.007 195.199 220.051C195.173 220.372 195.031 220.291 194.923 220.324C194.643 220.416 194.352 220.474 194.062 220.525C193.71 220.597 193.358 220.678 193.001 220.717C192.781 220.745 192.562 220.821 192.335 220.747C192.195 220.699 192.07 220.775 191.937 220.783C191.695 220.796 191.448 220.757 191.206 220.757C190.79 220.757 190.374 220.803 189.959 220.796C189.931 220.796 189.9 220.811 189.872 220.829C189.482 221.081 189.097 221 188.714 220.941C188.355 220.898 187.99 220.88 187.633 220.811C187.388 220.77 187.156 220.668 186.922 220.581C186.73 220.513 186.536 220.454 186.348 220.372C186.149 220.28 185.932 220.25 185.766 220.038C185.718 219.974 185.657 219.956 185.598 219.928C185.302 219.793 185.019 219.627 184.739 219.472C184.67 219.434 184.621 219.354 184.642 219.112C184.652 218.995 184.616 218.921 184.581 218.893C184.471 218.811 184.379 218.684 184.219 218.747C184.111 218.791 184.086 218.64 184.025 218.579C184.02 218.574 184.04 218.497 184.053 218.472C184.117 218.342 184.114 218.293 184.086 218.278C184.035 218.25 183.915 218.38 183.923 218.214C183.93 218.018 184.091 217.753 184.157 217.523C184.231 217.273 184.351 217.161 184.443 216.949C184.456 216.921 184.494 216.903 184.512 216.903C184.55 216.906 184.581 216.926 184.657 216.954L184.662 216.952Z" fill="#3A2913"/>
<path d="M243.422 114.729C239.732 112.895 236.203 114.568 234.456 117.512C232.401 119.902 231.679 123.769 232.722 126.922C234.474 132.23 241.101 135.74 245.003 130.33C248.053 126.1 248.884 117.44 243.424 114.729H243.422Z" fill="#3A2913"/>
<path d="M175.1 104.646C179.195 105.107 181.25 108.426 181.125 111.847C181.559 114.969 180.067 118.611 177.481 120.695C173.131 124.205 165.662 123.56 165.315 116.9C165.045 111.691 169.038 103.965 175.1 104.646Z" fill="#3A2913"/>
<path d="M267.983 246.885C264.298 242.072 258.908 240.34 253.882 240.868C246.688 241.623 239.711 245.875 233.158 249.633C226.375 253.52 219.778 257.956 213.38 262.864C213.301 261.489 213.01 260.351 212.102 259.466C207.153 254.65 199.406 257.229 195.346 262.486C195.173 262.711 195.071 262.955 195.017 263.203C194.227 263.629 193.477 264.172 192.794 264.879C180.199 263.012 169.479 253.949 158.042 247.459C152.687 244.421 147.128 242.054 141.302 241.409C138.247 241.07 134.998 241.08 131.987 241.929C129.016 242.768 127.404 245.416 126.772 249.283C125.147 259.234 125.609 269.807 126.739 279.796C127.896 290.037 129.699 300.478 132.229 310.278C134.276 318.213 137.727 325.024 143.768 328.184C149.418 331.141 155.944 330.564 161.549 327.723C168.717 324.088 175.548 317.259 180.969 310.089C185.501 304.095 188.002 294.723 194.01 290.948C195.165 292.052 196.56 292.664 198.105 292.863C201.313 293.279 205.503 292.917 208.492 290.57C208.52 290.624 208.543 290.68 208.578 290.731C216.647 303.023 225.133 315.887 236.605 322.55C241.874 325.608 247.66 327.409 253.43 326.914C258.214 326.503 264.418 325.001 266.213 318.175C267.18 314.502 267.226 310.247 267.307 306.398C267.404 301.845 267.287 297.287 267.356 292.733C267.427 288.045 267.733 283.408 268.608 278.855C269.401 274.732 270.495 270.72 271.183 266.56C272.336 259.578 272.02 252.153 267.986 246.885H267.983Z" fill="#312D48"/>
<path d="M174.149 109.303C172.68 110.137 172.203 112.015 172.993 113.482C173.35 114.145 174.138 114.219 174.761 113.946C175.758 113.504 176.724 112.895 177.104 111.813C177.453 110.818 177.142 109.592 176.26 108.982C175.339 108.347 174.118 108.615 173.516 109.553C172.955 110.423 173.047 111.811 174.103 112.275C174.74 112.556 175.49 112.461 175.87 111.811C176.191 111.262 176.048 110.326 175.406 110.043C174.954 109.844 175.893 110.551 175.707 110.898C175.589 111.117 175.492 111.104 175.232 111.137C175.102 111.199 174.977 111.199 174.86 111.142C174.643 110.89 174.595 110.859 174.712 111.045C174.697 111.023 174.684 111 174.669 110.977C174.659 110.847 174.659 110.864 174.661 111.025C174.679 110.923 174.676 110.918 174.656 111.007C174.63 111.094 174.633 111.091 174.659 111C174.628 111.025 174.572 111.127 174.536 111.15C174.194 111.38 173.832 111.553 173.457 111.719C174.047 111.875 174.636 112.028 175.225 112.183C175.125 111.999 175.176 111.698 175.454 111.54C176.9 110.719 175.599 108.487 174.151 109.308L174.149 109.303Z" fill="#F9F4EF"/>
<path d="M239.913 118.331C239.199 119.909 239.436 121.8 240.783 122.978C241.356 123.481 242.024 123.432 242.608 122.978C243.437 122.333 244.192 121.445 244.238 120.346C244.281 119.3 243.552 118.305 242.46 118.28C241.701 118.262 240.885 118.716 240.497 119.376C239.921 120.353 240.466 121.369 241.466 121.726C242.124 121.96 242.879 121.46 243.055 120.823C243.251 120.108 242.812 119.468 242.152 119.234C242.343 119.716 242.534 120.198 242.726 120.68C242.616 120.812 242.596 120.843 242.667 120.774C242.659 120.754 242.593 120.823 242.647 120.805C242.782 120.761 242.46 120.858 242.412 120.861C242.279 120.823 242.147 120.787 242.014 120.749C241.752 120.639 241.637 120.478 241.67 120.264C241.576 120.241 241.767 120.147 241.622 120.333C241.578 120.386 241.53 120.46 241.481 120.522C241.285 120.764 241.022 120.963 240.777 121.154H242.603C242.175 120.779 241.894 120.175 242.137 119.637C242.425 119.001 242.32 118.246 241.673 117.869C241.119 117.545 240.194 117.693 239.905 118.333L239.913 118.331Z" fill="#F9F4EF"/>
<path d="M293.343 126.412C293.351 126.366 293.404 126.322 293.435 126.276C293.461 126.327 293.509 126.378 293.506 126.432C293.501 126.605 293.476 126.779 293.463 126.957C293.624 127.108 293.218 127.409 293.67 127.485C293.695 127.491 293.705 127.598 293.685 127.651C293.649 127.748 293.616 127.858 293.529 127.929C293.313 128.113 293.471 128.309 293.42 128.493C293.348 128.746 293.486 128.894 293.71 129.034C293.787 129.08 293.884 129.164 293.871 129.223C293.81 129.549 294.065 129.835 294.016 130.154C293.999 130.289 293.971 130.472 293.853 130.541C293.532 130.733 293.657 130.883 293.835 131.034C294.116 131.276 294.116 131.577 294.096 131.875C294.088 132 293.884 132.138 293.917 132.24C293.953 132.35 294.195 132.403 294.284 132.516C294.44 132.707 294.669 132.891 294.491 133.166C294.437 133.25 294.465 133.362 294.463 133.465C294.46 133.607 294.386 133.717 294.292 133.845C294.111 134.089 294.121 134.368 294.312 134.625C294.427 134.778 294.526 134.944 294.659 135.087C294.792 135.227 294.845 135.388 294.799 135.541C294.705 135.87 294.804 136.173 294.901 136.487C295.008 136.837 295.156 137.189 295.174 137.543C295.205 138.145 295.317 138.747 295.253 139.354C295.223 139.63 295.294 139.918 295.342 140.199C295.355 140.267 295.432 140.362 295.508 140.387C295.929 140.528 296.289 140.392 296.294 140.069C296.304 139.336 296.36 138.602 296.327 137.87C296.268 137.056 296.179 136.24 296.016 135.441C295.824 134.597 295.822 133.745 295.659 132.906C295.6 132.607 295.575 132.301 295.478 132.011C295.32 131.539 295.266 131.062 295.256 130.574C295.253 130.393 295.256 130.21 295.225 130.031C295.116 129.353 294.983 128.679 294.942 127.993C294.927 127.672 294.883 127.353 294.848 127.034C294.774 126.391 294.69 125.751 294.628 125.108C294.478 123.907 294.376 122.695 293.994 121.534C293.958 121.42 293.943 121.297 293.927 121.177C293.795 120.052 293.578 118.943 293.384 117.828C293.16 116.719 292.948 115.606 292.708 114.499C292.548 113.767 292.387 113.035 292.191 112.313L291.579 110.15C291.247 109.13 290.905 108.112 290.523 107.11C290.242 106.373 289.957 105.638 289.689 104.898C289.485 104.327 289.294 103.75 289.105 103.171C288.914 102.595 288.7 102.026 288.493 101.452C288.417 101.243 288.322 101.039 288.218 100.842C288.182 100.776 288.106 100.717 288.024 100.692C287.835 100.633 287.481 100.763 287.351 100.95C287.241 101.103 287.16 101.271 287.098 101.437C287.083 101.475 287.226 101.518 287.264 101.577C287.315 101.659 287.402 101.779 287.361 101.845C287.221 102.064 287.361 102.212 287.404 102.375C287.517 102.822 287.677 103.25 287.805 103.692C287.866 103.901 287.899 104.128 288.22 104.169C288.246 104.171 288.264 104.289 288.236 104.309C288.009 104.493 288.075 104.689 288.136 104.837C288.233 105.069 288.18 105.393 288.48 105.513C288.807 105.64 288.837 105.85 288.702 106.115C288.59 106.334 288.608 106.526 288.682 106.712C288.835 107.1 288.97 107.497 289.154 107.872C289.335 108.232 289.455 108.607 289.508 109.008C289.567 109.444 289.653 109.877 289.924 110.245C290.161 110.558 290.271 110.916 290.362 111.285C290.403 111.456 290.495 111.614 290.571 111.775C290.579 111.79 290.658 111.783 290.704 111.775C290.719 111.775 290.745 111.737 290.742 111.722C290.732 111.663 290.707 111.607 290.694 111.548C290.691 111.53 290.699 111.507 290.714 111.492C290.727 111.479 290.755 111.472 290.775 111.464C290.834 111.586 290.9 111.706 290.946 111.831C290.974 111.91 290.934 111.982 290.821 112.035C290.666 112.112 290.592 112.229 290.666 112.354C290.775 112.538 290.735 112.739 290.742 112.941C290.75 113.155 290.811 113.367 290.857 113.579C290.872 113.655 290.941 113.729 290.926 113.803C290.844 114.201 291.252 114.436 291.293 114.793C291.298 114.834 291.4 114.859 291.464 114.885C291.561 114.925 291.617 114.989 291.543 115.073C291.265 115.397 291.367 115.698 291.464 116.002C291.5 116.109 291.551 116.298 291.619 116.298C291.864 116.298 291.897 116.42 291.936 116.553C291.984 116.721 291.9 116.838 291.709 116.974C291.482 117.132 291.597 117.466 291.864 117.565C292.14 117.356 292.129 117.583 292.186 117.683C292.257 117.805 292.303 117.94 292.354 118.07C292.402 118.188 292.423 118.298 292.234 118.384C292.081 118.456 292.002 118.578 292.035 118.703C292.15 119.152 292.104 119.614 292.117 120.07C292.142 120.989 292.336 121.879 292.515 122.774C292.563 123.024 292.611 123.274 292.757 123.506C292.861 123.677 292.9 123.881 292.925 124.078C293.009 124.728 293.116 125.376 293.119 126.034C293.124 126.391 293.231 126.695 293.481 126.973C293.338 126.807 293.31 126.618 293.346 126.422L293.343 126.412ZM292.364 119.05C292.405 119.035 292.492 119.086 292.537 119.124C292.673 119.241 292.606 119.377 292.517 119.504C292.499 119.532 292.433 119.555 292.392 119.555C292.354 119.555 292.303 119.524 292.29 119.496C292.249 119.41 292.224 119.315 292.18 119.193C292.237 119.147 292.293 119.078 292.367 119.05H292.364ZM290.413 110.52C290.413 110.52 290.462 110.49 290.477 110.495C290.52 110.502 290.587 110.513 290.597 110.538C290.638 110.645 290.717 110.757 290.587 110.877C290.574 110.89 290.485 110.877 290.469 110.857C290.436 110.808 290.426 110.747 290.395 110.66C290.398 110.635 290.401 110.576 290.413 110.52ZM291.048 113.247C291.051 113.234 291.084 113.211 291.102 113.211C291.125 113.211 291.163 113.221 291.163 113.232C291.178 113.329 291.189 113.426 291.196 113.522C291.196 113.54 291.183 113.561 291.176 113.579C291.148 113.561 291.109 113.55 291.097 113.528C291.069 113.477 291.053 113.418 291.036 113.367C291.038 113.323 291.038 113.285 291.048 113.247Z" fill="#3A2913"/>
<path d="M321.296 144.31C321.319 144.208 321.383 144.127 321.429 144.035C321.436 144.162 321.467 144.298 321.449 144.418C321.385 144.815 321.306 145.206 321.232 145.609C321.337 146.014 320.845 146.56 321.25 146.897C321.273 146.915 321.245 147.167 321.209 147.282C321.143 147.491 321.069 147.731 320.965 147.869C320.694 148.221 320.781 148.723 320.671 149.131C320.518 149.687 320.597 150.078 320.768 150.471C320.824 150.601 320.891 150.825 320.858 150.96C320.682 151.692 320.824 152.427 320.661 153.146C320.592 153.45 320.501 153.868 320.363 153.993C319.985 154.338 320.052 154.723 320.166 155.123C320.35 155.761 320.238 156.455 320.108 157.133C320.052 157.416 319.802 157.682 319.794 157.927C319.787 158.187 320.001 158.378 320.044 158.656C320.095 158.98 320.182 159.309 320.146 159.669L320.837 159.664C320.799 159.495 320.784 159.312 320.804 159.102C320.822 158.903 320.758 158.636 320.707 158.404C320.636 158.074 320.651 157.809 320.679 157.493C320.707 156.893 320.518 156.225 320.126 155.697C319.904 155.376 319.664 155.042 319.412 154.769C319.172 154.498 318.968 154.182 318.856 153.835C318.744 153.463 318.565 153.134 318.371 152.822C318.185 152.506 317.953 152.22 317.726 151.93C317.221 151.282 316.635 150.695 316.135 150.052C315.27 148.963 314.238 148.05 313.238 147.088C313.016 146.861 312.751 146.675 312.491 146.489C312.233 146.297 311.953 146.134 311.683 145.968C311.55 145.887 311.336 145.826 311.249 145.859C310.78 146.04 310.844 146.53 311.4 146.935C312.659 147.876 313.756 149.022 314.789 150.205C315.372 150.858 315.895 151.567 316.415 152.277C316.908 153.006 317.4 153.738 317.828 154.508C318.777 156.123 319.292 157.957 319.736 159.776L319.751 159.837L320.875 164.186L321.225 159.829C321.278 159.156 321.373 158.475 321.388 157.812C321.413 156.695 321.536 155.587 321.699 154.475C321.76 154.06 321.824 153.641 321.862 153.225C322.008 151.647 322.115 150.068 322.301 148.489C322.388 147.751 322.461 147.012 322.535 146.272C322.681 144.782 322.806 143.293 322.931 141.798C323.153 139.002 323.298 136.163 322.9 133.36C322.872 133.082 322.844 132.799 322.813 132.518C322.701 131.202 322.505 129.891 322.199 128.598C321.893 127.307 321.51 126.026 320.977 124.799C319.947 122.328 318.44 120.101 316.808 118.025C315.724 116.65 314.572 115.351 313.381 114.084C312.198 112.806 310.956 111.581 309.668 110.4C307.822 108.714 305.838 107.166 303.724 105.806C302.174 104.799 300.519 103.962 298.833 103.192C296.219 102.044 293.391 101.261 290.477 101.164C289.944 101.11 289.408 101.194 288.881 101.235C288.705 101.253 288.506 101.314 288.381 101.388C288.087 101.559 288.087 101.934 288.376 102.11C288.615 102.256 288.906 102.381 289.199 102.483C289.268 102.506 289.477 102.378 289.635 102.358C289.745 102.342 289.88 102.322 290.003 102.312C290.125 102.312 290.232 102.324 290.283 102.358C290.617 102.587 291.048 102.526 291.423 102.564C291.55 102.579 291.678 102.587 291.805 102.605L292.188 102.676L292.95 102.812C293.46 102.878 293.96 103.028 294.457 103.156C294.695 103.217 294.932 103.289 295.161 103.319C295.388 103.368 295.607 103.375 295.819 103.291C295.85 103.278 296.094 103.38 296.107 103.419C296.214 103.75 296.663 103.873 297 104.008C297.53 104.217 298.068 104.59 298.611 104.574C299.195 104.569 299.611 104.817 299.93 105.202C300.195 105.531 300.531 105.786 300.937 105.998L301.564 106.337L302.174 106.712C302.577 106.967 302.997 107.189 303.395 107.451C303.783 107.694 304.16 107.944 304.532 108.207C304.897 108.474 305.244 108.773 305.586 109.076C305.96 109.405 306.325 109.75 306.708 110.076C307.088 110.403 307.493 110.696 307.909 110.979C308.268 111.216 308.61 111.479 308.944 111.755C309.273 112.038 309.584 112.341 309.895 112.65C310.186 112.933 310.512 113.191 310.818 113.461C310.849 113.487 310.925 113.456 310.969 113.433C310.981 113.425 310.964 113.357 310.941 113.331L310.65 113.035C310.622 113.007 310.599 112.961 310.594 112.931C310.589 112.903 310.612 112.887 310.624 112.864C310.856 113.068 311.096 113.265 311.321 113.479C311.463 113.614 311.512 113.747 311.461 113.872C311.389 114.043 311.468 114.267 311.718 114.471C312.086 114.78 312.31 115.157 312.583 115.517C312.881 115.905 313.233 116.275 313.559 116.652C313.677 116.79 313.853 116.91 313.932 117.048C314.36 117.795 315.11 118.152 315.594 118.818C315.648 118.892 315.796 118.925 315.898 118.963C316.056 119.024 316.194 119.134 316.214 119.31C316.29 119.971 316.749 120.527 317.188 121.101C317.346 121.305 317.601 121.662 317.675 121.657C317.943 121.631 318.114 121.869 318.285 122.131C318.509 122.465 318.527 122.71 318.438 122.988C318.338 123.317 318.751 123.983 319.116 124.185C319.248 123.754 319.422 124.218 319.56 124.427C319.725 124.687 319.886 124.965 320.024 125.248C320.154 125.501 320.251 125.736 320.105 125.909C319.991 126.049 319.98 126.297 320.077 126.567C320.169 126.809 320.251 127.052 320.325 127.297C320.391 127.544 320.442 127.794 320.495 128.041C320.61 128.534 320.659 129.041 320.745 129.541C321.033 131.559 321.286 133.605 321.365 135.689C321.378 136.27 321.411 136.854 321.505 137.436C321.582 137.859 321.579 138.342 321.561 138.796C321.503 140.308 321.401 141.831 321.207 143.344C321.1 144.165 321.105 144.905 321.25 145.637C321.169 145.206 321.204 144.762 321.301 144.318L321.296 144.31ZM320.62 127.368C320.656 127.343 320.773 127.465 320.837 127.557C321.031 127.832 321.021 128.123 320.982 128.388C320.972 128.445 320.909 128.488 320.868 128.478C320.829 128.467 320.763 128.396 320.735 128.332C320.654 128.136 320.585 127.929 320.485 127.654C320.526 127.562 320.554 127.417 320.62 127.368ZM308.875 111.329C308.862 111.311 308.888 111.267 308.911 111.267C308.972 111.27 309.061 111.267 309.11 111.308C309.316 111.477 309.558 111.653 309.584 111.895C309.584 111.92 309.469 111.923 309.421 111.89C309.314 111.816 309.219 111.706 309.056 111.568C309.02 111.525 308.941 111.428 308.873 111.329H308.875ZM313.348 116.02C313.332 115.994 313.34 115.948 313.358 115.943C313.381 115.935 313.44 115.948 313.457 115.969C313.603 116.142 313.743 116.318 313.881 116.497C313.906 116.527 313.916 116.568 313.932 116.604C313.878 116.578 313.82 116.565 313.774 116.525C313.674 116.435 313.582 116.333 313.491 116.242C313.437 116.162 313.386 116.094 313.345 116.022L313.348 116.02Z" fill="#3A2913"/>
<path d="M305.262 122.409C305.254 122.384 305.277 122.328 305.287 122.287C305.32 122.292 305.369 122.279 305.384 122.302C305.433 122.381 305.468 122.471 305.509 122.557C305.67 122.511 305.468 122.917 305.815 122.641C305.835 122.626 305.874 122.664 305.876 122.7C305.881 122.764 305.886 122.835 305.846 122.925C305.741 123.152 305.912 123.126 305.93 123.238C305.95 123.391 306.096 123.363 306.302 123.271C306.371 123.241 306.468 123.213 306.478 123.246C306.529 123.425 306.802 123.381 306.861 123.547C306.886 123.616 306.919 123.713 306.85 123.817C306.662 124.106 306.797 124.088 306.978 124.039C307.263 123.963 307.35 124.095 307.422 124.233C307.452 124.292 307.332 124.478 307.386 124.501C307.445 124.526 307.651 124.399 307.753 124.391C307.932 124.376 308.169 124.317 308.105 124.544C308.087 124.613 308.141 124.646 308.169 124.69C308.207 124.753 308.179 124.845 308.141 124.958C308.064 125.172 308.151 125.284 308.38 125.281C308.518 125.281 308.643 125.294 308.796 125.281C308.944 125.266 309.036 125.307 309.041 125.401C309.056 125.6 309.224 125.677 309.395 125.761C309.584 125.855 309.808 125.932 309.926 126.082C310.125 126.335 310.39 126.552 310.507 126.858C310.558 126.998 310.703 127.093 310.823 127.197C310.854 127.223 310.946 127.23 311.022 127.205C311.43 127.067 311.706 126.83 311.614 126.672C311.407 126.322 311.239 125.945 310.994 125.618C310.701 125.271 310.38 124.94 310.007 124.664C309.597 124.389 309.334 124.004 308.952 123.723C308.814 123.623 308.699 123.504 308.536 123.432C308.268 123.32 308.082 123.141 307.924 122.93C307.865 122.851 307.812 122.766 307.733 122.708C307.439 122.478 307.133 122.266 306.889 121.991C306.776 121.858 306.644 121.749 306.519 121.631C306.264 121.399 305.999 121.172 305.751 120.932C305.262 120.512 304.793 120.042 304.16 119.818C304.099 119.795 304.048 119.751 303.999 119.711C303.54 119.31 303.025 118.991 302.526 118.644C302.273 118.476 302.005 118.331 301.745 118.17C301.485 118.012 301.228 117.848 300.955 117.706C300.6 117.514 300.246 117.318 299.874 117.16L298.744 116.711C298.188 116.542 297.632 116.379 297.061 116.272C296.643 116.193 296.225 116.114 295.809 116.027C295.49 115.956 295.171 115.872 294.853 115.787C294.534 115.706 294.207 115.65 293.881 115.586C293.761 115.563 293.639 115.56 293.519 115.568C293.478 115.571 293.43 115.617 293.394 115.678C293.312 115.821 293.277 116.198 293.325 116.395C293.363 116.56 293.417 116.706 293.473 116.833C293.486 116.861 293.544 116.754 293.58 116.747C293.631 116.736 293.708 116.711 293.726 116.777C293.782 116.999 293.886 116.935 293.968 116.968C294.192 117.063 294.424 117.099 294.651 117.18C294.758 117.218 294.863 117.287 294.985 117.017C294.995 116.997 295.049 117.03 295.049 117.065C295.049 117.346 295.151 117.374 295.233 117.382C295.36 117.397 295.472 117.586 295.625 117.369C295.794 117.134 295.89 117.201 295.947 117.435C295.992 117.629 296.074 117.695 296.176 117.713C296.385 117.749 296.592 117.803 296.808 117.805C297.02 117.803 297.211 117.866 297.385 117.991C297.573 118.132 297.77 118.244 298.025 118.172C298.247 118.106 298.428 118.17 298.604 118.252C298.685 118.29 298.785 118.285 298.879 118.287C298.889 118.287 298.922 118.216 298.943 118.175C298.948 118.162 298.948 118.124 298.943 118.121C298.917 118.106 298.884 118.101 298.856 118.086C298.848 118.081 298.843 118.063 298.846 118.045C298.846 118.027 298.859 118.002 298.864 117.979C298.935 117.984 299.012 117.979 299.081 117.996C299.124 118.007 299.129 118.073 299.096 118.19C299.05 118.356 299.055 118.468 299.134 118.461C299.254 118.448 299.305 118.57 299.379 118.652C299.458 118.739 299.562 118.78 299.659 118.833C299.695 118.854 299.754 118.828 299.772 118.874C299.866 119.116 300.157 118.879 300.305 119.001C300.32 119.014 300.384 118.943 300.427 118.902C300.493 118.838 300.544 118.82 300.534 118.92C300.498 119.287 300.651 119.336 300.807 119.389C300.863 119.407 300.955 119.445 300.99 119.389C301.126 119.193 301.187 119.216 301.251 119.244C301.335 119.279 301.327 119.397 301.263 119.611C301.187 119.864 301.36 119.915 301.546 119.741C301.636 119.43 301.704 119.537 301.771 119.535C301.852 119.529 301.924 119.552 301.998 119.568C302.064 119.58 302.112 119.611 302.031 119.8C301.965 119.95 301.959 120.065 302.018 120.096C302.23 120.198 302.352 120.435 302.505 120.619C302.809 120.991 303.204 121.223 303.594 121.466C303.704 121.534 303.808 121.606 303.977 121.598C304.096 121.593 304.186 121.652 304.262 121.718C304.515 121.935 304.787 122.131 304.981 122.409C305.091 122.557 305.254 122.608 305.514 122.555C305.361 122.585 305.287 122.524 305.254 122.414L305.262 122.409ZM302.334 119.986C302.355 119.948 302.424 119.902 302.462 119.884C302.582 119.828 302.587 119.94 302.574 120.065C302.574 120.091 302.538 120.154 302.515 120.185C302.492 120.216 302.452 120.241 302.436 120.241C302.383 120.236 302.337 120.216 302.271 120.195C302.288 120.131 302.299 120.057 302.334 119.989V119.986ZM298.354 117.877C298.354 117.877 298.364 117.823 298.374 117.81C298.397 117.777 298.43 117.724 298.446 117.729C298.504 117.741 298.581 117.724 298.568 117.889C298.568 117.907 298.522 117.979 298.507 117.981C298.474 117.989 298.446 117.968 298.4 117.956C298.392 117.943 298.372 117.915 298.356 117.879L298.354 117.877ZM299.647 118.535C299.647 118.535 299.652 118.491 299.659 118.473C299.67 118.453 299.693 118.428 299.698 118.43C299.738 118.461 299.779 118.494 299.817 118.53C299.825 118.537 299.825 118.558 299.828 118.57C299.807 118.586 299.784 118.614 299.769 118.614C299.736 118.614 299.71 118.601 299.682 118.593C299.67 118.573 299.654 118.555 299.647 118.53V118.535Z" fill="#3A2913"/>
<path d="M104.625 75.347C104.699 75.2985 104.791 75.2908 104.875 75.2653C104.809 75.3495 104.758 75.4541 104.676 75.5179C104.406 75.7194 104.138 75.9183 103.871 76.1301C103.733 76.4617 103.075 76.4923 103.202 76.9795C103.21 77.0075 103.057 77.1529 102.968 77.2039C102.807 77.2958 102.626 77.4055 102.473 77.4284C102.078 77.4794 101.887 77.8723 101.601 78.0814C101.206 78.362 101.073 78.6783 101.012 79.0507C100.992 79.1732 100.933 79.367 100.841 79.4359C100.594 79.6297 100.408 79.8746 100.224 80.1169C100.051 80.3669 99.8772 80.6195 99.6477 80.821C99.4539 80.9919 99.1887 81.2316 99.0204 81.2418C98.5563 81.2648 98.4339 81.5786 98.3472 81.9255C98.2044 82.4739 97.8347 82.9228 97.4343 83.3386C97.2686 83.5146 96.9473 83.5707 96.8402 83.7442C96.7254 83.9278 96.8249 84.1829 96.7484 84.4074C96.6107 84.79 96.5597 85.2287 96.1032 85.5195C95.9655 85.6088 95.8482 85.8001 95.7258 85.9506C95.5524 86.1623 95.3688 86.2797 95.1419 86.4123C94.7084 86.6623 94.3769 87.1036 94.2392 87.629C94.1525 87.9428 94.0428 88.2591 93.9842 88.5652C93.9281 88.8662 93.7904 89.1442 93.5838 89.3585C93.1325 89.8125 92.9132 90.3737 92.6607 90.9247C92.3904 91.547 92.1278 92.1771 91.7988 92.7689C91.5158 93.2688 91.2582 93.7815 90.9905 94.2866L90.5825 95.0416C90.4499 95.2967 90.3096 95.5492 90.1592 95.7941C89.8838 96.243 89.6951 96.7558 89.4885 97.2455C89.4375 97.3654 89.4248 97.5567 89.4707 97.6281C89.7333 98.0337 90.1847 97.9521 90.4677 97.4241L91.452 95.6411C91.7937 95.0544 92.1456 94.4754 92.4695 93.881L93.0126 92.8888L93.5762 91.9067C93.9536 91.2537 94.2902 90.5726 94.6676 89.9247C95.0552 89.2309 95.481 88.5575 95.9196 87.8918C96.3786 87.2413 96.8376 86.5909 97.266 85.9174C97.5618 85.4302 97.9469 84.9992 98.2325 84.5145C98.7068 83.7314 99.2627 83.007 99.8976 82.3438C100.13 82.0913 100.369 81.8413 100.586 81.5786C100.992 81.0709 101.415 80.5837 101.848 80.1016C102.282 79.6195 102.715 79.1374 103.177 78.6809L104.493 77.4157L105.151 76.7754L105.829 76.1581L107.196 74.9363L109.85 72.7554C110.302 72.4034 110.748 72.0462 111.189 71.6815C111.628 71.3142 112.064 70.9443 112.51 70.5821C112.686 70.4367 112.877 70.3066 113.066 70.1765C116.598 67.7584 120.293 65.5494 124.163 63.7613C126.724 62.6007 129.355 61.6033 132.076 61.0574C134.019 60.6646 136.006 60.4759 137.967 60.6417C139.405 60.7768 140.84 61.0625 142.187 61.5931C144.255 62.4119 146.119 63.7205 147.483 65.404C147.71 65.7279 147.991 66.0162 148.21 66.3452C148.289 66.4524 148.414 66.5518 148.524 66.6003C148.779 66.7125 149.13 66.562 149.171 66.2713C149.204 66.0289 149.189 65.7509 149.146 65.4678C149.138 65.3989 148.932 65.3096 148.837 65.2101C148.707 65.0698 148.503 64.8632 148.498 64.751C148.483 64.376 148.146 64.149 147.94 63.8837C147.333 63.1899 146.644 62.5445 145.884 62.0063C145.54 61.7283 145.152 61.4758 144.75 61.5574C144.722 61.5599 144.53 61.4324 144.525 61.3941C144.5 61.0727 144.122 60.861 143.829 60.7284C143.362 60.5269 142.883 60.1391 142.386 60.2233C141.86 60.2922 141.486 60.157 141.152 59.828C140.871 59.5652 140.509 59.4377 140.106 59.3484C139.265 59.203 138.418 59.0602 137.569 59.0602C136.755 59.0398 135.957 59.0602 135.154 59.0219C134.277 59.0015 133.377 59.0398 132.545 59.3382C131.831 59.5805 131.112 59.754 130.375 59.9223C130.034 60.0014 129.707 60.1443 129.381 60.2641C129.348 60.2769 129.345 60.3585 129.345 60.407C129.345 60.4223 129.406 60.4401 129.434 60.435L129.773 60.3432C129.807 60.3356 129.85 60.3381 129.875 60.3509C129.898 60.3611 129.901 60.3891 129.914 60.4095L129.179 60.6876C129.024 60.7437 128.904 60.7182 128.825 60.6136C128.715 60.4708 128.506 60.4223 128.259 60.5473C127.894 60.736 127.514 60.7539 127.139 60.8508C126.731 60.9477 126.328 61.1136 125.933 61.2691C125.788 61.3253 125.642 61.4324 125.51 61.4554C124.775 61.5752 124.316 62.1492 123.666 62.4043C123.592 62.4323 123.544 62.5598 123.495 62.644C123.419 62.7741 123.307 62.871 123.151 62.843C122.565 62.7384 122.016 63.0471 121.481 63.3633C121.287 63.473 120.958 63.6643 120.963 63.7383C120.978 64.001 120.767 64.1286 120.537 64.2638C120.244 64.4372 120.03 64.4347 119.775 64.3275C119.474 64.2 118.882 64.5724 118.74 64.927C119.142 65.0673 118.737 65.2127 118.574 65.3555C118.37 65.5264 118.145 65.6846 117.931 65.8453C117.737 65.9907 117.554 66.1029 117.368 65.9779C117.22 65.8784 116.993 65.8963 116.784 66.0315C116.016 66.5085 115.223 66.8885 114.44 67.3145C114.048 67.5313 113.657 67.7533 113.277 67.993C112.905 68.2405 112.535 68.4981 112.168 68.7583C111.434 69.2761 110.715 69.8143 110.019 70.3831C109.626 70.6943 109.238 71.0183 108.914 71.406C108.675 71.684 108.371 71.9595 108.073 72.2044L106.584 73.4339C106.086 73.8446 105.61 74.2731 105.11 74.6736C104.569 75.1174 104.148 75.574 103.876 76.153C104.041 75.8163 104.309 75.5536 104.63 75.3495L104.625 75.347ZM116.22 66.6717C116.253 66.7023 116.182 66.8324 116.126 66.9141C115.958 67.1564 115.715 67.2074 115.478 67.2303C115.427 67.2355 115.371 67.187 115.363 67.1462C115.356 67.1054 115.394 67.0263 115.44 66.988C115.58 66.8681 115.733 66.7585 115.937 66.6029C116.026 66.6182 116.159 66.6182 116.22 66.6743V66.6717ZM131.806 59.8688C131.824 59.8688 131.844 59.9147 131.831 59.9351C131.798 59.9835 131.757 60.0524 131.706 60.0652C131.487 60.1187 131.255 60.2106 131.066 60.0958C131.046 60.083 131.097 59.9861 131.143 59.9657C131.245 59.9198 131.367 59.9045 131.546 59.8637C131.594 59.8637 131.701 59.8611 131.806 59.8688ZM126.509 61.3253C126.535 61.3227 126.568 61.3457 126.571 61.3661C126.571 61.389 126.545 61.4375 126.525 61.4452C126.346 61.5089 126.165 61.565 125.984 61.6212C125.951 61.6314 125.915 61.6263 125.882 61.6263C125.915 61.588 125.943 61.5395 125.987 61.514C126.086 61.4579 126.193 61.4145 126.293 61.3686C126.372 61.3533 126.443 61.3329 126.512 61.3253H126.509Z" fill="#3A2913"/>
<path d="M129.113 87.4073C129.151 87.3716 129.22 87.3665 129.276 87.3461C129.26 87.4073 129.266 87.4839 129.23 87.5272C129.11 87.6777 128.975 87.8155 128.845 87.9634C128.87 88.1955 128.348 88.216 128.654 88.5578C128.671 88.5756 128.608 88.6776 128.557 88.7134C128.465 88.7771 128.363 88.8536 128.251 88.8715C127.96 88.9123 127.968 89.1878 127.812 89.3281C127.6 89.5194 127.618 89.7388 127.718 89.9964C127.751 90.0831 127.779 90.2158 127.733 90.2642C127.481 90.5321 127.516 90.9351 127.282 91.2029C127.18 91.3152 127.055 91.4759 126.917 91.481C126.54 91.4912 126.56 91.7029 126.624 91.9427C126.726 92.3227 126.557 92.6084 126.374 92.8839C126.297 92.9987 126.045 93.0293 126.014 93.1441C125.984 93.2665 126.162 93.44 126.177 93.5905C126.203 93.8481 126.305 94.1363 126.017 94.32C125.928 94.3761 125.894 94.5011 125.843 94.598C125.769 94.7358 125.652 94.8072 125.502 94.8888C125.219 95.0444 125.086 95.3276 125.129 95.6668C125.155 95.8709 125.16 96.0749 125.211 96.2739C125.259 96.4703 125.229 96.6463 125.122 96.7841C124.892 97.0748 124.849 97.4218 124.8 97.7712C124.747 98.164 124.729 98.5722 124.591 98.9293C124.354 99.5389 124.265 100.2 123.969 100.791C123.837 101.062 123.798 101.375 123.74 101.676C123.724 101.75 123.763 101.87 123.826 101.919C124.176 102.192 124.568 102.166 124.688 101.847C124.964 101.126 125.282 100.416 125.517 99.6818C125.808 98.8732 126.07 98.0492 126.262 97.1998C126.483 96.3122 126.907 95.501 127.167 94.6261C127.261 94.3149 127.417 94.0241 127.488 93.7053C127.608 93.1874 127.825 92.7155 128.08 92.259C128.177 92.0881 128.274 91.9197 128.36 91.7437C128.676 91.0779 128.972 90.3994 129.35 89.7617C129.521 89.4607 129.707 89.1674 129.885 88.8715C130.247 88.2772 130.597 87.6726 130.971 87.0859C131.714 86.0121 132.438 84.9305 133.068 83.7801C133.129 83.6653 133.208 83.5608 133.287 83.4562C134.009 82.4716 134.784 81.5278 135.531 80.5661C135.911 80.0891 136.311 79.63 136.704 79.1632C137.097 78.6989 137.487 78.2322 137.91 77.7909L139.534 76.0079L141.177 74.2427C141.993 73.4316 142.745 72.5566 143.571 71.7557C144.178 71.1665 144.744 70.5313 145.394 69.9905C145.892 69.5697 146.396 69.1564 146.904 68.7458C147.411 68.3376 147.944 67.9576 148.457 67.5596C148.646 67.4142 148.824 67.2535 148.995 67.0852C149.051 67.0291 149.089 66.9321 149.094 66.8429C149.105 66.6363 148.888 66.3276 148.668 66.2587C148.487 66.2026 148.296 66.1771 148.113 66.1746C148.069 66.1746 148.062 66.3302 148.011 66.3863C147.939 66.4654 147.84 66.5929 147.761 66.575C147.498 66.5138 147.383 66.7051 147.228 66.8046C146.802 67.0801 146.384 67.3734 145.983 67.6821C145.792 67.8275 145.573 67.955 145.634 68.2841C145.639 68.3096 145.527 68.3759 145.496 68.358C145.241 68.2152 145.06 68.3631 144.933 68.483C144.729 68.6743 144.379 68.7611 144.362 69.0978C144.339 69.4574 144.145 69.5799 143.839 69.5799C143.581 69.5799 143.4 69.687 143.245 69.8477C142.918 70.1793 142.579 70.4982 142.278 70.8527C141.985 71.1869 141.689 71.5083 141.327 71.7735C140.934 72.0643 140.554 72.3781 140.322 72.8219C140.118 73.1969 139.851 73.5132 139.555 73.8142C139.417 73.9519 139.315 74.1279 139.205 74.2912C139.195 74.3065 139.241 74.3728 139.272 74.4085C139.279 74.4187 139.328 74.4213 139.338 74.4085C139.386 74.3652 139.427 74.3116 139.473 74.2657C139.486 74.2529 139.514 74.2453 139.534 74.2504C139.555 74.2529 139.573 74.2733 139.593 74.2886C139.509 74.4111 139.432 74.5412 139.341 74.6559C139.282 74.7274 139.198 74.7325 139.088 74.6687C138.938 74.5794 138.792 74.5845 138.716 74.7223C138.601 74.9263 138.392 75.0131 138.211 75.1406C138.015 75.2783 137.867 75.4747 137.703 75.6482C137.645 75.712 137.617 75.8191 137.543 75.8523C137.142 76.0436 137.158 76.541 136.862 76.8088C136.829 76.8394 136.862 76.9415 136.875 77.0103C136.893 77.1175 136.87 77.2067 136.75 77.1991C136.298 77.1761 136.097 77.472 135.901 77.7654C135.829 77.8699 135.702 78.0434 135.743 78.0995C135.888 78.2985 135.804 78.4133 135.714 78.5331C135.6 78.6887 135.449 78.7066 135.217 78.6454C134.944 78.574 134.725 78.9056 134.807 79.1887C135.156 79.2601 134.955 79.4106 134.906 79.5254C134.842 79.6657 134.763 79.8009 134.694 79.9386C134.631 80.0636 134.557 80.1606 134.366 80.0789C134.21 80.0152 134.06 80.0432 133.98 80.1631C133.692 80.5891 133.284 80.9054 132.92 81.265C132.193 81.992 131.665 82.8771 131.091 83.7215C130.931 83.9587 130.796 84.2112 130.729 84.5071C130.683 84.7239 130.563 84.9229 130.441 85.1065C130.036 85.7162 129.63 86.3258 129.207 86.9227C128.972 87.2441 128.85 87.5808 128.86 87.9838C128.858 87.7492 128.962 87.5629 129.123 87.4099L129.113 87.4073ZM133.894 80.6835C133.932 80.7039 133.947 80.8085 133.947 80.8722C133.942 81.061 133.789 81.112 133.626 81.1426C133.593 81.1477 133.529 81.1171 133.501 81.0865C133.476 81.0559 133.465 80.9972 133.481 80.964C133.524 80.8671 133.583 80.7778 133.657 80.6503C133.731 80.658 133.822 80.6478 133.894 80.686V80.6835ZM140.271 73.4112C140.271 73.4112 140.32 73.4367 140.325 73.4545C140.338 73.4979 140.361 73.5642 140.343 73.5872C140.264 73.6866 140.2 73.8193 140.027 73.7759C140.009 73.7708 139.976 73.6841 139.988 73.6586C140.016 73.5999 140.067 73.5566 140.134 73.4775C140.159 73.4647 140.213 73.4341 140.271 73.4112ZM138.083 75.5972C138.099 75.5921 138.132 75.6048 138.145 75.6201C138.157 75.638 138.168 75.6788 138.16 75.6865C138.083 75.7604 138.002 75.8319 137.92 75.9033C137.905 75.916 137.879 75.916 137.859 75.9211C137.859 75.888 137.849 75.8446 137.862 75.8191C137.892 75.7604 137.936 75.712 137.971 75.661C138.012 75.638 138.045 75.6099 138.083 75.5946V75.5972Z" fill="#3A2913"/>
<path d="M130.554 68.9371C130.577 68.9498 130.597 69.0034 130.62 69.0391C130.597 69.0595 130.574 69.1054 130.549 69.0978C130.467 69.0774 130.383 69.0416 130.299 69.0136C130.233 69.1615 130.077 68.7355 130.054 69.1768C130.054 69.2023 130 69.2023 129.975 69.1794C129.927 69.136 129.876 69.0927 129.837 69.0059C129.743 68.7789 129.654 68.9269 129.564 68.8656C129.442 68.784 129.376 68.9116 129.32 69.1284C129.302 69.1998 129.264 69.2942 129.235 69.2789C129.077 69.2023 128.952 69.4396 128.799 69.3758C128.736 69.3477 128.646 69.3171 128.608 69.1998C128.504 68.8758 128.437 68.9957 128.374 69.1692C128.274 69.4447 128.131 69.4345 127.989 69.409C127.93 69.3988 127.851 69.1921 127.805 69.2202C127.756 69.2508 127.744 69.4931 127.695 69.5799C127.614 69.7278 127.54 69.9548 127.402 69.7788C127.359 69.7253 127.308 69.7533 127.259 69.7508C127.193 69.7482 127.137 69.6768 127.071 69.5799C126.943 69.3988 126.81 69.4115 126.703 69.6028C126.64 69.7176 126.568 69.8171 126.51 69.9497C126.453 70.0824 126.382 70.1359 126.306 70.0951C126.145 70.0109 126.01 70.1206 125.872 70.2278C125.719 70.3476 125.566 70.5032 125.403 70.5313C125.125 70.5798 124.86 70.7405 124.572 70.7073C124.441 70.692 124.317 70.7813 124.189 70.8451C124.158 70.8604 124.123 70.942 124.118 71.0211C124.095 71.4496 124.192 71.799 124.342 71.7837C124.679 71.7506 125.018 71.7633 125.349 71.6868C125.719 71.6026 126.086 71.4904 126.441 71.3016C126.816 71.1027 127.213 71.1001 127.591 70.9343C127.726 70.8757 127.869 70.8629 127.996 70.7736C128.208 70.6257 128.43 70.5849 128.654 70.5874C128.738 70.5874 128.825 70.5951 128.907 70.5747C129.22 70.5007 129.531 70.4038 129.85 70.3987C130 70.3961 130.148 70.3834 130.296 70.3732C130.597 70.3527 130.896 70.317 131.196 70.3094C131.76 70.2941 132.326 70.3017 132.872 70.0951C132.925 70.0747 132.984 70.0773 133.04 70.0773C134.096 70.09 135.146 70.0211 136.202 70.0339C136.901 70.0416 137.594 69.9931 138.288 69.9446C138.785 69.9089 139.277 69.8298 139.772 69.7686C140.134 69.7253 140.496 69.6513 140.863 69.6411C141.427 69.6283 141.996 69.6589 142.562 69.6666C142.666 69.6666 142.768 69.6487 142.868 69.6207C142.901 69.6105 142.937 69.5569 142.957 69.4906C143.003 69.335 142.983 68.9575 142.914 68.7713C142.855 68.6157 142.786 68.4805 142.717 68.3657C142.702 68.3402 142.666 68.4575 142.636 68.4703C142.592 68.4907 142.529 68.5289 142.501 68.4652C142.414 68.256 142.33 68.3376 142.251 68.3223C142.031 68.2739 141.815 68.2662 141.598 68.2458C141.496 68.2356 141.386 68.1948 141.338 68.4856C141.335 68.5085 141.279 68.4856 141.271 68.455C141.208 68.182 141.108 68.182 141.034 68.1922C140.917 68.2075 140.769 68.0519 140.688 68.2994C140.598 68.5646 140.499 68.5289 140.387 68.3249C140.292 68.154 140.203 68.1157 140.109 68.131C139.912 68.1616 139.716 68.1744 139.525 68.2381C139.341 68.2994 139.158 68.3198 138.964 68.2636C138.752 68.2024 138.543 68.1693 138.352 68.33C138.189 68.4677 138.013 68.4932 137.834 68.4907C137.75 68.4907 137.671 68.5391 137.589 68.5748C137.582 68.5774 137.582 68.6565 137.582 68.7024C137.582 68.7177 137.597 68.7508 137.605 68.7508C137.633 68.7534 137.661 68.7457 137.689 68.7457C137.696 68.7457 137.709 68.7611 137.714 68.7789C137.719 68.7942 137.722 68.8223 137.724 68.8452C137.663 68.8707 137.605 68.9064 137.541 68.9218C137.503 68.9294 137.472 68.8733 137.449 68.7508C137.421 68.5825 137.367 68.4805 137.306 68.5238C137.214 68.585 137.12 68.4958 137.023 68.455C136.921 68.4116 136.817 68.4295 136.715 68.4269C136.676 68.4269 136.641 68.4779 136.605 68.4473C136.419 68.2815 136.291 68.6284 136.12 68.5927C136.103 68.5876 136.085 68.682 136.069 68.7381C136.047 68.8248 136.013 68.8656 135.978 68.7764C135.832 68.4346 135.684 68.4754 135.539 68.5136C135.486 68.5289 135.396 68.5442 135.394 68.6106C135.386 68.8503 135.327 68.8605 135.264 68.8733C135.182 68.8886 135.129 68.784 135.07 68.5697C135.001 68.3172 134.835 68.3657 134.784 68.6106C134.879 68.9192 134.769 68.8682 134.721 68.9039C134.659 68.9498 134.596 68.9728 134.534 69.0034C134.478 69.0314 134.425 69.034 134.386 68.835C134.356 68.6743 134.297 68.5774 134.239 68.5876C134.024 68.6284 133.803 68.5085 133.583 68.4499C133.142 68.33 132.716 68.4192 132.288 68.4703C132.168 68.4856 132.048 68.5111 131.938 68.6284C131.859 68.7126 131.76 68.7304 131.668 68.7355C131.36 68.7509 131.049 68.7789 130.735 68.7355C130.564 68.7126 130.421 68.7942 130.296 69.0212C130.37 68.8911 130.459 68.8809 130.556 68.9294L130.554 68.9371ZM134.063 68.8605C134.068 68.9013 134.045 68.9804 134.024 69.0187C133.968 69.1335 133.905 69.0467 133.843 68.9371C133.831 68.9141 133.82 68.8452 133.82 68.8044C133.82 68.7662 133.836 68.7202 133.848 68.7126C133.892 68.6871 133.935 68.6769 133.996 68.6539C134.017 68.7151 134.05 68.7815 134.063 68.8605ZM138.183 68.7279C138.183 68.7279 138.194 68.7815 138.191 68.7968C138.183 68.8376 138.176 68.8988 138.163 68.9013C138.109 68.9141 138.053 68.9626 138.002 68.807C137.997 68.7917 138.007 68.7075 138.018 68.6973C138.043 68.6769 138.071 68.682 138.115 68.6743C138.127 68.6845 138.153 68.6998 138.178 68.7253L138.183 68.7279ZM136.86 68.6896C136.86 68.6896 136.875 68.7304 136.875 68.7483C136.875 68.7713 136.868 68.8044 136.863 68.8044C136.817 68.7993 136.771 68.7866 136.722 68.7738C136.715 68.7738 136.704 68.7534 136.697 68.7432C136.707 68.7202 136.712 68.6845 136.725 68.6769C136.75 68.6616 136.778 68.659 136.804 68.6514C136.824 68.6641 136.842 68.6718 136.86 68.6896Z" fill="#3A2913"/>
<path d="M176.26 93.4117C176.247 93.3939 176.25 93.3352 176.245 93.2969C176.27 93.2842 176.303 93.2485 176.324 93.2612C176.382 93.302 176.433 93.3709 176.487 93.427C176.596 93.3173 176.543 93.7612 176.739 93.3658C176.749 93.3428 176.79 93.3607 176.8 93.3913C176.818 93.4449 176.841 93.5061 176.831 93.6005C176.803 93.8428 176.928 93.7459 176.966 93.8351C177.015 93.9576 177.119 93.8683 177.27 93.7025C177.318 93.6464 177.389 93.5852 177.405 93.6081C177.479 93.7484 177.693 93.603 177.772 93.7306C177.805 93.7816 177.848 93.8555 177.81 93.9729C177.701 94.2943 177.808 94.2254 177.951 94.1183C178.177 93.9474 178.279 94.0264 178.351 94.131C178.384 94.1744 178.302 94.3759 178.351 94.3785C178.402 94.381 178.565 94.2025 178.654 94.1642C178.805 94.0953 179.009 93.9729 178.978 94.1923C178.968 94.2586 179.022 94.2713 179.05 94.3019C179.09 94.3453 179.075 94.4346 179.05 94.5417C179.004 94.7458 179.078 94.8223 179.282 94.7636C179.404 94.7279 179.519 94.7101 179.654 94.6616C179.789 94.6131 179.873 94.6284 179.886 94.7126C179.911 94.8835 180.07 94.9141 180.235 94.9549C180.416 95.0009 180.623 95.0417 180.735 95.159C180.921 95.358 181.184 95.5187 181.283 95.7865C181.324 95.9115 181.454 95.9855 181.564 96.0773C181.589 96.1002 181.681 96.1028 181.755 96.0773C182.163 95.9421 182.449 95.7176 182.362 95.5671C182.181 95.2304 182.005 94.8886 181.75 94.6029C181.6 94.4524 181.444 94.307 181.281 94.1744C181.11 94.0494 180.924 93.9397 180.733 93.8453C180.319 93.6617 180.029 93.3607 179.623 93.2127C179.481 93.1592 179.358 93.0776 179.197 93.0597C178.94 93.0265 178.736 92.9373 178.552 92.7995C178.483 92.7485 178.417 92.6924 178.336 92.6643L177.874 92.5087C177.721 92.4603 177.568 92.4118 177.425 92.3404C177.293 92.269 177.15 92.2256 177.01 92.172C176.729 92.0598 176.433 92.0011 176.145 91.9067C175.602 91.7562 175.026 91.6287 174.46 91.7843C174.403 91.7971 174.347 91.792 174.291 91.7894C173.236 91.7129 172.167 91.9271 171.155 92.2894C170.482 92.524 169.859 92.8964 169.296 93.3352C168.901 93.6617 168.546 94.0341 168.232 94.4371C168.113 94.58 168.003 94.733 167.903 94.8912L167.582 95.3503C167.23 95.8069 166.904 96.2967 166.636 96.8298C166.59 96.9292 166.562 97.0338 166.547 97.1435C166.542 97.1792 166.575 97.2353 166.628 97.2787C166.751 97.3833 167.11 97.5006 167.312 97.5108C167.478 97.5185 167.631 97.5134 167.761 97.5032C167.791 97.5032 167.697 97.4267 167.694 97.396C167.694 97.3527 167.682 97.2838 167.748 97.2889C167.972 97.3068 167.921 97.2073 167.975 97.1537C168.115 97.0109 168.204 96.8502 168.327 96.7048C168.385 96.6359 168.47 96.5849 168.25 96.3885C168.235 96.3732 168.278 96.3426 168.309 96.3553C168.567 96.4599 168.61 96.3936 168.643 96.34C168.694 96.2507 168.893 96.2507 168.74 96.0441C168.577 95.8197 168.666 95.7712 168.888 95.8324C169.074 95.8834 169.153 95.8554 169.194 95.7865C169.275 95.6437 169.395 95.5289 169.464 95.3707C169.53 95.2177 169.645 95.108 169.806 95.0468C169.979 94.9779 170.142 94.9116 170.178 94.6871C170.206 94.4932 170.326 94.3963 170.459 94.3172C170.52 94.2815 170.553 94.205 170.594 94.1361C170.596 94.1285 170.558 94.0622 170.535 94.0239C170.527 94.0111 170.497 93.9882 170.492 93.9907C170.469 94.0009 170.453 94.0213 170.431 94.0341C170.425 94.0367 170.408 94.029 170.395 94.0188C170.382 94.0086 170.367 93.9831 170.351 93.9652C170.385 93.9142 170.41 93.8555 170.453 93.8173C170.482 93.7943 170.533 93.83 170.609 93.927C170.714 94.0622 170.803 94.1285 170.831 94.0698C170.872 93.978 170.986 94.0213 171.076 94.0213C171.173 94.0213 171.244 93.9754 171.323 93.9423C171.351 93.9321 171.361 93.8734 171.4 93.8887C171.606 93.978 171.57 93.6234 171.726 93.6107C171.741 93.6107 171.723 93.5163 171.716 93.4602C171.706 93.3734 171.716 93.325 171.779 93.399C172.009 93.677 172.108 93.6107 172.218 93.5443C172.256 93.5188 172.323 93.4857 172.307 93.4194C172.249 93.1872 172.297 93.1643 172.346 93.1388C172.409 93.1056 172.483 93.2 172.58 93.399C172.695 93.6336 172.81 93.5648 172.805 93.3173C172.667 93.0291 172.766 93.0622 172.805 93.0189C172.848 92.9628 172.899 92.9322 172.95 92.899C172.996 92.8658 173.042 92.8582 173.1 93.052C173.149 93.2076 173.208 93.2995 173.256 93.2842C173.427 93.2178 173.618 93.3428 173.791 93.3964C174.141 93.5112 174.462 93.4602 174.801 93.4602C174.896 93.4576 174.99 93.4602 175.097 93.3607C175.176 93.2918 175.258 93.2918 175.332 93.302C175.576 93.3607 175.829 93.399 176.051 93.5367C176.173 93.6056 176.306 93.5699 176.487 93.4092C176.38 93.5035 176.311 93.478 176.255 93.4066L176.26 93.4117ZM173.378 93.0061C173.368 92.9653 173.383 92.8837 173.396 92.848C173.437 92.7332 173.501 92.8174 173.559 92.9245C173.572 92.9475 173.585 93.0163 173.587 93.0546C173.587 93.0929 173.58 93.1388 173.57 93.1464C173.536 93.1745 173.501 93.1847 173.452 93.2076C173.429 93.1464 173.396 93.0827 173.378 93.0061ZM170.076 94.2866C170.076 94.2866 170.038 94.2484 170.03 94.2331C170.012 94.1974 169.984 94.1412 169.992 94.1336C170.025 94.0979 170.043 94.029 170.165 94.1336C170.178 94.1438 170.216 94.2203 170.214 94.2331C170.206 94.2611 170.181 94.2713 170.153 94.2968C170.137 94.2968 170.109 94.2943 170.074 94.2841L170.076 94.2866ZM171.111 93.7637C171.111 93.7637 171.081 93.7306 171.073 93.7153C171.063 93.6948 171.055 93.6617 171.06 93.6591C171.101 93.6489 171.142 93.6438 171.185 93.6387C171.193 93.6387 171.208 93.6515 171.218 93.6591C171.218 93.6821 171.229 93.7178 171.224 93.728C171.211 93.751 171.188 93.7637 171.173 93.7765C171.152 93.7714 171.134 93.7714 171.111 93.7612V93.7637Z" fill="#3A2913"/>
<path d="M253.642 105.044C253.639 105.018 253.673 104.967 253.688 104.929C253.721 104.939 253.772 104.936 253.785 104.962C253.823 105.046 253.831 105.151 253.856 105.245C254.022 105.24 253.734 105.589 254.137 105.403C254.16 105.393 254.19 105.442 254.183 105.477C254.172 105.541 254.162 105.615 254.101 105.691C253.943 105.888 254.116 105.906 254.104 106.021C254.086 106.174 254.234 106.184 254.463 106.156C254.54 106.146 254.639 106.148 254.639 106.184C254.631 106.378 254.907 106.424 254.914 106.607C254.92 106.684 254.92 106.791 254.82 106.867C254.547 107.079 254.682 107.107 254.871 107.125C255.167 107.153 255.218 107.311 255.223 107.474C255.228 107.543 255.047 107.673 255.088 107.717C255.131 107.763 255.371 107.724 255.47 107.76C255.641 107.819 255.886 107.865 255.736 108.056C255.692 108.112 255.728 108.168 255.736 108.222C255.746 108.298 255.685 108.372 255.603 108.459C255.452 108.622 255.47 108.765 255.677 108.872C255.799 108.936 255.906 109.01 256.047 109.071C256.187 109.133 256.248 109.214 256.21 109.306C256.131 109.5 256.243 109.655 256.355 109.826C256.475 110.015 256.615 110.217 256.633 110.423C256.661 110.77 256.771 111.13 256.682 111.482C256.633 111.64 256.689 111.813 256.717 111.987C256.725 112.028 256.794 112.097 256.868 112.125C257.273 112.278 257.638 112.255 257.666 112.043C257.742 111.576 257.811 111.104 257.786 110.632C257.755 110.372 257.717 110.112 257.666 109.857C257.6 109.602 257.513 109.354 257.411 109.115C257.296 108.865 257.209 108.612 257.138 108.36C257.059 108.11 256.962 107.865 256.837 107.633C256.745 107.469 256.682 107.293 256.554 107.148C256.35 106.911 256.215 106.661 256.128 106.385C256.095 106.283 256.067 106.176 256.006 106.084L255.672 105.572C255.554 105.403 255.44 105.237 255.348 105.056C255.266 104.885 255.152 104.732 255.047 104.574C254.843 104.25 254.585 103.965 254.361 103.656C253.912 103.1 253.412 102.554 252.742 102.253C252.678 102.22 252.622 102.177 252.566 102.131C251.525 101.284 250.268 100.72 248.96 100.371C248.093 100.131 247.183 100.059 246.283 100.098C245.638 100.146 245 100.258 244.383 100.439C244.153 100.498 243.929 100.572 243.71 100.659L243.044 100.899C242.351 101.123 241.67 101.409 241.019 101.776C240.902 101.847 240.798 101.934 240.698 102.031C240.665 102.064 240.652 102.133 240.665 102.205C240.693 102.37 240.917 102.674 241.088 102.789C241.231 102.883 241.369 102.957 241.496 103.016C241.524 103.028 241.499 102.906 241.524 102.875C241.558 102.832 241.603 102.758 241.66 102.799C241.848 102.932 241.881 102.804 241.976 102.784C242.223 102.72 242.435 102.605 242.669 102.534C242.782 102.498 242.906 102.493 242.855 102.197C242.853 102.174 242.917 102.169 242.937 102.197C243.098 102.426 243.195 102.386 243.271 102.353C243.391 102.296 243.59 102.398 243.608 102.133C243.628 101.845 243.756 101.847 243.926 102.018C244.069 102.161 244.171 102.177 244.268 102.138C244.467 102.052 244.681 102.016 244.88 101.916C245.071 101.817 245.278 101.786 245.492 101.822C245.727 101.855 245.954 101.893 246.165 101.725C246.349 101.577 246.548 101.569 246.747 101.58C246.839 101.585 246.933 101.541 247.027 101.508C247.037 101.506 247.045 101.427 247.05 101.383C247.05 101.37 247.037 101.332 247.03 101.332C246.997 101.327 246.966 101.335 246.933 101.332C246.923 101.332 246.913 101.314 246.907 101.296C246.902 101.281 246.902 101.253 246.902 101.23C246.976 101.207 247.048 101.174 247.122 101.171C247.168 101.169 247.198 101.23 247.206 101.353C247.219 101.524 247.262 101.631 247.336 101.597C247.448 101.549 247.54 101.651 247.637 101.705C247.741 101.761 247.853 101.771 247.966 101.794C248.006 101.802 248.057 101.761 248.088 101.799C248.249 101.995 248.468 101.694 248.644 101.784C248.664 101.794 248.708 101.707 248.741 101.659C248.789 101.582 248.838 101.552 248.853 101.651C248.907 102.016 249.067 102.031 249.23 102.049C249.289 102.054 249.389 102.072 249.414 102.011C249.508 101.791 249.577 101.802 249.649 101.817C249.74 101.835 249.756 101.96 249.728 102.179C249.695 102.442 249.871 102.467 250.029 102.271C250.069 101.949 250.156 102.046 250.222 102.036C250.307 102.021 250.381 102.036 250.457 102.044C250.526 102.052 250.582 102.077 250.521 102.271C250.472 102.429 250.48 102.544 250.541 102.564C250.771 102.633 250.901 102.875 251.059 103.049C251.37 103.403 251.755 103.618 252.117 103.893C252.219 103.967 252.316 104.046 252.484 104.051C252.604 104.056 252.691 104.123 252.762 104.194C252.982 104.447 253.221 104.684 253.367 104.995C253.451 105.158 253.604 105.237 253.866 105.248C253.711 105.243 253.66 105.161 253.642 105.051V105.044ZM250.85 102.421C250.865 102.383 250.931 102.327 250.97 102.309C251.084 102.248 251.1 102.363 251.097 102.49C251.097 102.518 251.069 102.582 251.046 102.615C251.026 102.646 250.987 102.676 250.97 102.674C250.916 102.671 250.87 102.654 250.804 102.636C250.819 102.569 250.822 102.495 250.85 102.424V102.421ZM246.362 101.322C246.362 101.322 246.352 101.268 246.354 101.253C246.364 101.212 246.374 101.151 246.39 101.151C246.451 101.141 246.522 101.095 246.571 101.253C246.576 101.268 246.558 101.353 246.545 101.36C246.515 101.381 246.482 101.373 246.433 101.378C246.42 101.368 246.39 101.35 246.362 101.322ZM247.859 101.508C247.859 101.508 247.851 101.465 247.853 101.447C247.859 101.427 247.871 101.393 247.879 101.396C247.93 101.411 247.981 101.434 248.029 101.457C248.037 101.462 248.045 101.48 248.052 101.493C248.037 101.513 248.022 101.546 248.006 101.552C247.976 101.562 247.943 101.557 247.915 101.559C247.894 101.541 247.876 101.531 247.861 101.511L247.859 101.508Z" fill="#3A2913"/>
</svg>
